<svg xmlns="http://www.w3.org/2000/svg" viewBox="0 0 40.39 54.18">
    <title>Asset 118</title>
    <g id="Layer_2" data-name="Layer 2">
        <g id="Layer_1-2" data-name="Layer 1">
            <path fill="#ffffff" d="M21.91,53.37H.91a.9.9,0,0,1-.91-.9v-48a.9.9,0,0,1,.91-.9H35.39a.9.9,0,0,1,.9.9V29.42a.91.91,0,1,1-1.81,0v-24H1.81V51.56h20.1a.91.91,0,1,1,0,1.81Z" />
            <path fill="#ffffff" d="M39.49,33.58a.9.9,0,0,1-.91-.9V1.81H5.91V4.48a.91.91,0,1,1-1.81,0V.91A.91.91,0,0,1,5,0H39.49a.9.9,0,0,1,.9.91V32.68A.9.9,0,0,1,39.49,33.58Z" />
            <path fill="#ffffff" d="M25.68,10.51H10.61a.91.91,0,1,1,0-1.81H25.68a.91.91,0,1,1,0,1.81Z" />
            <path fill="#ffffff" d="M30.32,15.72H6a.91.91,0,1,1,0-1.81H30.32a.91.91,0,0,1,0,1.81Z" />
            <path fill="#ffffff" d="M30.32,20.92H6a.91.91,0,1,1,0-1.81H30.32a.91.91,0,0,1,0,1.81Z" />
            <path fill="#ffffff" d="M30.32,26.13H6a.91.91,0,1,1,0-1.81H30.32a.91.91,0,0,1,0,1.81Z" />
            <path fill="#ffffff" d="M26.52,31.33H6a.91.91,0,1,1,0-1.81H26.52a.91.91,0,1,1,0,1.81Z" />
            <path fill="#ffffff" d="M21.21,36.54H6a.91.91,0,1,1,0-1.81H21.21a.91.91,0,1,1,0,1.81Z" />
            <path fill="#ffffff" d="M15.23,48.74a.92.92,0,0,1-.78-.45.9.9,0,0,1,.33-1.24,4.24,4.24,0,0,0,2-2,2.37,2.37,0,0,0-1.71-.1,1.75,1.75,0,0,0-.72.48,6.54,6.54,0,0,1-1.55,1.09,3.74,3.74,0,0,1-2.59.65,2.87,2.87,0,0,1-1.67-1.1A7.4,7.4,0,0,1,7,46.45a.9.9,0,1,1-.18-1.8,4.84,4.84,0,0,0,1-.18,5,5,0,0,1-.17-.72c-.13-.75-.3-2.55.88-3.09a3.63,3.63,0,0,1,3,.46,1.81,1.81,0,0,1,.89,1.57,3.8,3.8,0,0,1-2.08,2.61.81.81,0,0,0,.3.14c.3.06.66-.11,1.39-.49a5,5,0,0,0,1.17-.83,3.38,3.38,0,0,1,1.36-.85c1.45-.48,3.44-.13,4,1.12s-.59,2.94-2.78,4.22A.84.84,0,0,1,15.23,48.74ZM9.31,42.3a3.78,3.78,0,0,0,0,1.15c0,.09,0,.18.05.28a3.21,3.21,0,0,0,1.13-1.07A2.34,2.34,0,0,0,9.31,42.3Z" />
            <path fill="#ffffff" d="M36.5,54.18A.89.89,0,0,1,36,54L31.29,50.6,26.62,54a.9.9,0,0,1-1.44-.73V43.71a.91.91,0,0,1,.6-.86.92.92,0,0,1,1,.28,5.81,5.81,0,0,0,9,0,.9.9,0,0,1,1.6.58v9.57a.92.92,0,0,1-.49.81A1,1,0,0,1,36.5,54.18Zm-5.21-5.6a1,1,0,0,1,.54.17l3.76,2.75V45.76a7.66,7.66,0,0,1-8.6,0V51.5l3.77-2.75A1,1,0,0,1,31.29,48.58Z" />
            <path fill="#ffffff" d="M31.29,47.08a7.63,7.63,0,1,1,7.63-7.63A7.63,7.63,0,0,1,31.29,47.08Zm0-13.44a5.82,5.82,0,1,0,5.82,5.81A5.82,5.82,0,0,0,31.29,33.64Z" />
            <path fill="#ffffff" d="M31.29,43.2a3.76,3.76,0,0,1-3.75-3.75.91.91,0,0,1,1.82,0,1.94,1.94,0,1,0,1.93-1.93.91.91,0,0,1,0-1.82,3.75,3.75,0,1,1,0,7.5Z" />
        </g>
    </g>
</svg>
