<svg xmlns="http://www.w3.org/2000/svg" viewBox="0 0 48.91 55.13">
    <title>Asset 99</title>
    <g id="Layer_2" data-name="Layer 2">
        <g id="Layer_1-2" data-name="Layer 1">
            <path fill="#ffffff" d="M42.26,48.92a.9.9,0,0,1-.9-.91v-4.2A7.22,7.22,0,0,1,43.16,39L46,35.79a4.34,4.34,0,0,0,1.08-2.88v-8.3a1.21,1.21,0,0,0-1.2-1.21H36.1a1.57,1.57,0,1,0,0,3.14h4.58a2,2,0,0,1,2,2v3.56a.91.91,0,1,1-1.81,0V28.5a.15.15,0,0,0-.15-.15H36.1a3.38,3.38,0,1,1,0-6.76h9.79a3,3,0,0,1,3,3v8.3A6.2,6.2,0,0,1,47.37,37l-2.85,3.24a5.42,5.42,0,0,0-1.35,3.58V48A.91.91,0,0,1,42.26,48.92Z" />
            <path fill="#ffffff" d="M40.48,23.4H35.4a.9.9,0,0,1-.9-.9V15.36a3.45,3.45,0,0,1,6.89,0V22.5A.9.9,0,0,1,40.48,23.4Zm-4.17-1.81h3.27V15.36a1.64,1.64,0,0,0-3.27,0Z" />
            <path fill="#ffffff" d="M26.94,48.92A.91.91,0,0,1,26,48V42.3a5.54,5.54,0,0,0-.32-1.85l-.55-1.52a13.57,13.57,0,0,1-.82-4.63V19.5a3.45,3.45,0,1,1,6.89,0v3.1A3.44,3.44,0,0,1,27.79,26a3.5,3.5,0,0,1-1.64-.41V34.3a11.68,11.68,0,0,0,.71,4l.55,1.52a7.14,7.14,0,0,1,.44,2.47V48A.91.91,0,0,1,26.94,48.92ZM26.15,22.6a1.64,1.64,0,0,0,3.27,0V19.5a1.64,1.64,0,1,0-3.27,0Z" />
            <path fill="#ffffff" d="M45.56,23.4H40.48a.9.9,0,0,1-.9-.9V17.21a3.45,3.45,0,0,1,6.89,0V22.5A.9.9,0,0,1,45.56,23.4Zm-4.17-1.81h3.26V17.21a1.63,1.63,0,1,0-3.26,0Z" />
            <path fill="#ffffff" d="M32.86,27.1a3.45,3.45,0,0,1-3.44-3.45V17a3.45,3.45,0,1,1,6.89,0v5.66a.91.91,0,0,1-.65.87A1.55,1.55,0,0,0,34.53,25a1.65,1.65,0,0,0,.14.65.9.9,0,0,1,0,.7.91.91,0,0,1-.49.51A3.38,3.38,0,0,1,32.86,27.1Zm0-11.79A1.64,1.64,0,0,0,31.23,17v6.7a1.63,1.63,0,0,0,1.5,1.63c0-.1,0-.2,0-.31a3.34,3.34,0,0,1,1.78-3V17A1.64,1.64,0,0,0,32.86,15.31Z" />
            <path fill="#ffffff" d="M44.13,51.67h-19a.9.9,0,0,1-.9-.91V48a.9.9,0,0,1,.9-.91h19A.9.9,0,0,1,45,48v2.75A.9.9,0,0,1,44.13,51.67ZM26,49.86H43.22v-.94H26Z" />
            <path fill="#ffffff" d="M46.28,55.13H23a.9.9,0,0,1-.91-.9V50.76a.9.9,0,0,1,.91-.9H46.28a.9.9,0,0,1,.91.9v3.47A.9.9,0,0,1,46.28,55.13ZM23.87,53.32H45.38V51.67H23.87Z" />
            <path fill="#ffffff" d="M26.94,46H4.62a.9.9,0,0,1-.9-.9V.91A.9.9,0,0,1,4.62,0H35.4a.91.91,0,0,1,.91.91V9.65a.91.91,0,1,1-1.81,0V1.81h-29V44.19H26.94a.91.91,0,1,1,0,1.81Z" />
            <path fill="#ffffff" d="M21.16,48.92H.91A.91.91,0,0,1,0,48V3.82a.91.91,0,0,1,.91-.91H4.62a.91.91,0,0,1,.91.91V45.1a.91.91,0,0,1-1.81,0V4.73H1.81V47.1H21.16a.91.91,0,0,1,0,1.82Z" />
            <path fill="#ffffff" d="M48,55.13H.91a.91.91,0,1,1,0-1.81H48a.91.91,0,1,1,0,1.81Z" />
            <path fill="#ffffff" d="M26.49,7.33H13.54a.91.91,0,1,1,0-1.81h13a.91.91,0,1,1,0,1.81Z" />
            <path fill="#ffffff" d="M30.46,12.6H9.57a.91.91,0,1,1,0-1.81H30.46a.91.91,0,1,1,0,1.81Z" />
            <path fill="#ffffff" d="M21.16,17.86H9.57a.91.91,0,1,1,0-1.81H21.16a.91.91,0,0,1,0,1.81Z" />
            <path fill="#ffffff" d="M21.16,23.13H9.57a.91.91,0,1,1,0-1.81H21.16a.91.91,0,0,1,0,1.81Z" />
            <path fill="#ffffff" d="M21.16,28.4H9.57a.91.91,0,0,1,0-1.82H21.16a.91.91,0,0,1,0,1.82Z" />
            <path fill="#ffffff" d="M21.16,33.66H9.57a.91.91,0,1,1,0-1.81H21.16a.91.91,0,0,1,0,1.81Z" />
            <path fill="#ffffff" d="M21.16,38.93H9.57a.91.91,0,1,1,0-1.81H21.16a.91.91,0,0,1,0,1.81Z" />
        </g>
    </g>
</svg>
