<svg xmlns="http://www.w3.org/2000/svg" viewBox="0 0 36.53 54.2"><title>Asset 92</title><g id="Layer_2" data-name="Layer 2"><g id="Layer_1-2" data-name="Layer 1"><path fill="#c08329" d="M5.55,30.72a.91.91,0,0,1-.91-.91V19.31a.91.91,0,0,1,1.81,0v10.5A.9.9,0,0,1,5.55,30.72Z"/><path fill="#c08329" d="M16.64,30.72a.9.9,0,0,1-.9-.91V19.31a.91.91,0,0,1,1.81,0v10.5A.91.91,0,0,1,16.64,30.72Z"/><path fill="#c08329" d="M11,11.6c-1.17,0-2.84-.54-4.14-3a9.47,9.47,0,0,1-1-4.41V4.05A3.54,3.54,0,0,1,7.61.94,7.21,7.21,0,0,1,11.07,0a7,7,0,0,1,3.72,1.21,3.57,3.57,0,0,1,1.62,3,9.48,9.48,0,0,1-1.06,4.44c-1.34,2.51-3.06,3-4.28,3Zm.11-9.79a5.54,5.54,0,0,0-2.59.71,1.75,1.75,0,0,0-.89,1.53V4.2a7.69,7.69,0,0,0,.83,3.56c.73,1.38,1.62,2.05,2.65,2s2-.65,2.68-2A7.7,7.7,0,0,0,14.6,4.2a1.75,1.75,0,0,0-.79-1.47A5.28,5.28,0,0,0,11.07,1.81Z"/><path fill="#c08329" d="M5.55,29.09H.91a.91.91,0,1,1,0-1.81H5.55a.91.91,0,0,1,0,1.81Z"/><path fill="#c08329" d="M21.28,29.09H16.64a.91.91,0,0,1,0-1.81h4.64a.91.91,0,1,1,0,1.81Z"/><path fill="#c08329" d="M15.59,54.2h-9a2,2,0,0,1-2-2V32.71A3.21,3.21,0,0,1,2.91,33,3.3,3.3,0,0,1,0,29.71V18.09a5.56,5.56,0,0,1,5.55-5.55H16.64a5.55,5.55,0,0,1,5.55,5.54V29.72A3.29,3.29,0,0,1,19.28,33a3.21,3.21,0,0,1-1.73-.31V52.24A2,2,0,0,1,15.59,54.2ZM6.45,29.81V52.24a.15.15,0,0,0,.15.15h9a.15.15,0,0,0,.15-.15V29.81a.91.91,0,0,1,1.81,0A1.39,1.39,0,0,0,18,30.86a1.41,1.41,0,0,0,1.09.36,1.48,1.48,0,0,0,1.28-1.5V18.08a3.75,3.75,0,0,0-3.74-3.73H5.55a3.75,3.75,0,0,0-3.74,3.74V29.71a1.48,1.48,0,0,0,1.27,1.51,1.41,1.41,0,0,0,1.56-1.41.91.91,0,0,1,1.81,0Z"/><path fill="#c08329" d="M11.09,54.2a.9.9,0,0,1-.9-.91V33.76a.91.91,0,0,1,1.81,0V53.29A.91.91,0,0,1,11.09,54.2Z"/><path fill="#c08329" d="M35.63,1.81H25.53a.91.91,0,1,1,0-1.81h10.1a.91.91,0,0,1,0,1.81Z"/><path fill="#c08329" d="M31.7,7.64H25.53a.91.91,0,1,1,0-1.81H31.7a.91.91,0,0,1,0,1.81Z"/><path fill="#c08329" d="M35.63,13.46H25.53a.91.91,0,1,1,0-1.81h10.1a.91.91,0,0,1,0,1.81Z"/><path fill="#c08329" d="M31.7,19.29H25.53a.91.91,0,1,1,0-1.81H31.7a.91.91,0,0,1,0,1.81Z"/><path fill="#c08329" d="M35.63,25.11H25.53a.91.91,0,1,1,0-1.81h10.1a.91.91,0,0,1,0,1.81Z"/><path fill="#c08329" d="M31.7,30.94H25.53a.91.91,0,1,1,0-1.81H31.7a.91.91,0,0,1,0,1.81Z"/><path fill="#c08329" d="M35.63,36.76H25.53a.91.91,0,1,1,0-1.81h10.1a.91.91,0,0,1,0,1.81Z"/><path fill="#c08329" d="M31.7,42.59H25.53a.91.91,0,1,1,0-1.81H31.7a.91.91,0,0,1,0,1.81Z"/><path fill="#c08329" d="M35.63,48.41H25.53a.91.91,0,1,1,0-1.81h10.1a.91.91,0,0,1,0,1.81Z"/><path fill="#c08329" d="M35.63,54.2H.91a.91.91,0,1,1,0-1.81H35.63a.91.91,0,0,1,0,1.81Z"/></g></g></svg>