<svg xmlns="http://www.w3.org/2000/svg" viewBox="0 0 48.4 53">
    <title>Asset 101</title>
    <g id="Layer_2" data-name="Layer 2">
        <g id="Layer_1-2" data-name="Layer 1">
            <path fill="#c08329" d="M32.46,53a.93.93,0,0,1-.4-.09.91.91,0,0,1-.51-.81V43.73a.9.9,0,0,1,.91-.9H43.25a.91.91,0,0,1,.56,1.62C40.55,47,36.31,50.27,33,52.82A.91.91,0,0,1,32.46,53Zm.91-8.36v5.61l7.25-5.61Z" />
            <path fill="#c08329" d="M32.46,53H6.59a.9.9,0,0,1-.91-.9V37.46a.91.91,0,0,1,1.81,0V51.19H32.15c3.11-2.42,7-5.46,10.2-7.9v-38H6.59a.91.91,0,0,1,0-1.82H43.25a.91.91,0,0,1,.91.91v39.4a.91.91,0,0,1-.35.72C40.51,47,36.28,50.27,33,52.81A.88.88,0,0,1,32.46,53Z" />
            <path fill="#c08329" d="M34.45,10.92H15.39a.91.91,0,0,1,0-1.81H34.45a.91.91,0,0,1,0,1.81Z" />
            <path fill="#c08329" d="M37.86,15.56H12.76a.91.91,0,1,1,0-1.81h25.1a.91.91,0,0,1,0,1.81Z" />
            <path fill="#c08329" d="M37.86,20.2H14.3a.91.91,0,0,1,0-1.81H37.86a.91.91,0,0,1,0,1.81Z" />
            <path fill="#c08329" d="M37.86,24.84h-22a.91.91,0,1,1,0-1.81h22a.91.91,0,0,1,0,1.81Z" />
            <path fill="#c08329" d="M37.86,29.48H18.94a.91.91,0,1,1,0-1.81H37.86a.91.91,0,0,1,0,1.81Z" />
            <path fill="#c08329" d="M37.86,34.12H18.94a.91.91,0,1,1,0-1.81H37.86a.91.91,0,0,1,0,1.81Z" />
            <path fill="#c08329" d="M24.09,46.05H12a.91.91,0,0,1,0-1.82H24.09a.91.91,0,0,1,0,1.82Z" />
            <path fill="#c08329" d="M10.83,40.48a.9.9,0,0,1-.87-.66L2.06,11.18A3.5,3.5,0,1,1,8.81,9.32L16.71,38a.93.93,0,0,1-.09.69.9.9,0,0,1-.55.42l-5,1.38ZM5.44,8.56A1.74,1.74,0,0,0,5,8.62a1.68,1.68,0,0,0-1.18,2.07l7.65,27.77,3.26-.89L7.07,9.8A1.7,1.7,0,0,0,5.44,8.56Z" />
            <path fill="#c08329" d="M15.06,46.08a.9.9,0,0,1-.72-.36l-4.23-5.6a.86.86,0,0,1-.14-.83.92.92,0,0,1,.62-.59l5-1.38a.9.9,0,0,1,.83.19.88.88,0,0,1,.31.79l-.77,7a.9.9,0,0,1-.66.77A.67.67,0,0,1,15.06,46.08Zm-2.7-6,2.05,2.71.38-3.38Z" />
            <path fill="#c08329" d="M3.56,27.19a.91.91,0,0,1-.88-.66L.16,17.37A4.4,4.4,0,0,1,.57,14,4.35,4.35,0,0,1,3.22,12a.91.91,0,1,1,.48,1.75,2.54,2.54,0,0,0-1.55,1.21,2.51,2.51,0,0,0-.24,2l2.52,9.16a.9.9,0,0,1-.63,1.11A1,1,0,0,1,3.56,27.19Z" />
            <path fill="#c08329" d="M47.5,49.58H36.87A.91.91,0,0,1,36,49a.89.89,0,0,1,.3-1l6-4.67v-38H10.83a.91.91,0,0,1-.91-.91V.91A.91.91,0,0,1,10.83,0H47.5a.9.9,0,0,1,.9.91V48.67A.9.9,0,0,1,47.5,49.58Zm-8-1.81h7.08v-46H11.73V3.42H43.25a.91.91,0,0,1,.91.91v39.4a.91.91,0,0,1-.35.72Z" />
        </g>
    </g>
</svg>
