<svg xmlns="http://www.w3.org/2000/svg" viewBox="0 0 48.63 53.43"><title>Asset 102</title><g id="Layer_2" data-name="Layer 2"><g id="Layer_1-2" data-name="Layer 1"><path fill="#c08329" d="M30.76,32.24a3.6,3.6,0,0,1-1-.15,3.44,3.44,0,0,1-2-1.68l-4.86-9.13a3.46,3.46,0,0,1,1.43-4.67l8.94-4.76a3.46,3.46,0,0,1,4.68,1.42l4.85,9.13A3.4,3.4,0,0,1,43,25a3.46,3.46,0,0,1-1.68,2l-8.94,4.76A3.44,3.44,0,0,1,30.76,32.24Zm4.07-19a1.67,1.67,0,0,0-.77.2l-8.94,4.76a1.64,1.64,0,0,0-.68,2.22l4.86,9.13a1.65,1.65,0,0,0,2.23.68l8.93-4.76a1.64,1.64,0,0,0,.68-2.23l-4.85-9.12A1.66,1.66,0,0,0,34.83,13.25Z"/><path fill="#c08329" d="M22.33,30.93a.82.82,0,0,1-.26,0,.94.94,0,0,1-.54-.44l-2.17-4.07a.92.92,0,0,1,.38-1.23l4.82-2.57a.87.87,0,0,1,.69-.06.91.91,0,0,1,.54.44L28,27a.92.92,0,0,1-.38,1.23l-4.82,2.57A.91.91,0,0,1,22.33,30.93Zm-.94-4.61,1.32,2.48,3.22-1.72-1.32-2.47Z"/><path fill="#c08329" d="M4.36,41.83a1.94,1.94,0,0,1-1.71-1L.23,36.26A1.93,1.93,0,0,1,1,33.65l17.2-9.16a2,2,0,0,1,1.48-.14,1.9,1.9,0,0,1,1.14.94l2.42,4.54a1.94,1.94,0,0,1-.8,2.62L5.26,41.61A2,2,0,0,1,4.36,41.83ZM19.12,26.08S1.88,35.25,1.88,35.25a.13.13,0,0,0,0,.16L4.25,40a.12.12,0,0,0,.16,0l17.2-9.16a.13.13,0,0,0,.05-.16l-2.42-4.55A.13.13,0,0,0,19.12,26.08Z"/><path fill="#c08329" d="M33.68,35.54a.84.84,0,0,1-.27,0,.89.89,0,0,1-.53-.44L31,31.54a.91.91,0,0,1,.38-1.23l9.23-4.91a.88.88,0,0,1,.69-.07.91.91,0,0,1,.54.44l1.87,3.52a.91.91,0,0,1-.37,1.23L34.1,35.44A.9.9,0,0,1,33.68,35.54ZM33,31.49l1,1.92,7.64-4.07-1-1.92Z"/><path fill="#c08329" d="M34.66,41.31a1.93,1.93,0,0,1-1.7-1l-1.71-3.21a1.93,1.93,0,0,1,.79-2.6l11.66-6.2a1.91,1.91,0,0,1,2.6.79L48,32.28a1.93,1.93,0,0,1-.8,2.6L35.56,41.09A1.9,1.9,0,0,1,34.66,41.31Zm9.93-11.44S32.9,36.08,32.9,36.08a.11.11,0,0,0,0,.15l1.71,3.21a.13.13,0,0,0,.15.05l11.65-6.21a.11.11,0,0,0,0-.15L44.7,29.92A.14.14,0,0,0,44.59,29.87Z"/><path fill="#c08329" d="M37.67,43.68a2.33,2.33,0,0,1-.74-.11,2.48,2.48,0,0,1-1.5-1.23l-.92-1.72a.92.92,0,0,1-.06-.69.94.94,0,0,1,.44-.54l11.29-6a.91.91,0,0,1,1.23.37l.92,1.73a2.52,2.52,0,0,1-1,3.41l-8.44,4.5A2.6,2.6,0,0,1,37.67,43.68Zm-1.13-3.11.49.92a.73.73,0,0,0,.42.35.75.75,0,0,0,.55-.05l8.43-4.5a.71.71,0,0,0,.3-1l-.49-.93Z"/><path fill="#c08329" d="M24.55,18.39a.89.89,0,0,1-.8-.48l-1.88-3.52a.92.92,0,0,1-.06-.69.86.86,0,0,1,.44-.53l9.23-4.92a.91.91,0,0,1,1.23.37l1.87,3.52a.88.88,0,0,1,.07.69.94.94,0,0,1-.44.54L25,18.29A.9.9,0,0,1,24.55,18.39Zm-.65-4.05,1,1.92,7.64-4.07-1-1.92Z"/><path fill="#c08329" d="M21,15.63a1.77,1.77,0,0,1-.56-.08,1.9,1.9,0,0,1-1.14-.94L17.58,11.4a1.93,1.93,0,0,1,.79-2.6L30,2.6a1.92,1.92,0,0,1,2.6.79L34.34,6.6a1.94,1.94,0,0,1-.8,2.61l-11.65,6.2A1.9,1.9,0,0,1,21,15.63ZM30.93,4.18l-.05,0L19.23,10.4a.12.12,0,0,0-.06.06.14.14,0,0,0,0,.09l1.71,3.21a.12.12,0,0,0,.15.05l11.65-6.2a.12.12,0,0,0,0-.16L31,4.24A.13.13,0,0,0,30.93,4.18Z"/><path fill="#c08329" d="M19,10.41a.89.89,0,0,1-.8-.48l-.92-1.72a2.53,2.53,0,0,1,1-3.42L26.74.3a2.51,2.51,0,0,1,3.41,1l.92,1.73a.92.92,0,0,1,.07.69.89.89,0,0,1-.44.53l-11.3,6A.8.8,0,0,1,19,10.41Zm8.94-8.6a.66.66,0,0,0-.33.09L19.15,6.39a.7.7,0,0,0-.29,1l.49.93,9.7-5.16-.5-.93a.73.73,0,0,0-.42-.35Z"/><path fill="#c08329" d="M20.81,33.21a1,1,0,0,1-.3-.05c-3-1-5-5.65-5.23-6.17a.89.89,0,0,1,.48-1.18.91.91,0,0,1,1.19.48c.5,1.21,2.25,4.5,4.15,5.16a.89.89,0,0,1,.56,1.15A.91.91,0,0,1,20.81,33.21Z"/><path fill="#c08329" d="M17.69,34.87a.93.93,0,0,1-.29,0c-3-1-5-5.65-5.24-6.17a.89.89,0,0,1,.48-1.18.91.91,0,0,1,1.19.48c.51,1.21,2.25,4.5,4.16,5.16a.9.9,0,0,1,.56,1.15A.91.91,0,0,1,17.69,34.87Z"/><path fill="#c08329" d="M14.57,36.53a1,1,0,0,1-.29-.05c-3-1-5-5.65-5.24-6.17a.91.91,0,0,1,1.67-.7c.51,1.21,2.25,4.5,4.16,5.16a.9.9,0,0,1,.56,1.15A.91.91,0,0,1,14.57,36.53Z"/><path fill="#c08329" d="M11.46,38.19a1,1,0,0,1-.3,0c-3-1-5-5.65-5.24-6.17a.91.91,0,0,1,.49-1.18.89.89,0,0,1,1.18.48c.51,1.21,2.25,4.5,4.16,5.16a.89.89,0,0,1,.56,1.15A.91.91,0,0,1,11.46,38.19Z"/><path fill="#c08329" d="M8.34,39.85a.93.93,0,0,1-.29-.05c-3-1-5-5.65-5.24-6.17a.89.89,0,0,1,.48-1.18.9.9,0,0,1,1.19.48c.51,1.21,2.25,4.5,4.16,5.15a.91.91,0,0,1-.3,1.77Z"/><path fill="#c08329" d="M37,24a.75.75,0,0,1-.26,0L28.3,21.42a.9.9,0,1,1,.53-1.73l8.45,2.58A.9.9,0,0,1,37,24Z"/><path fill="#c08329" d="M45.52,53.43H25.41a.9.9,0,0,1-.9-.9V49.06a.9.9,0,0,1,.9-.9H45.52a.9.9,0,0,1,.9.9v3.47A.9.9,0,0,1,45.52,53.43Zm-19.2-1.81H44.61V50H26.32Z"/><path fill="#c08329" d="M43.44,50H27.5a.91.91,0,0,1-.91-.91,3.92,3.92,0,0,1,3.92-3.91h9.91a3.92,3.92,0,0,1,3.92,3.91A.9.9,0,0,1,43.44,50ZM28.61,48.16H42.32a2.09,2.09,0,0,0-1.9-1.2H30.51A2.1,2.1,0,0,0,28.61,48.16Z"/><path fill="#c08329" d="M17.69,53.43H16.24a.91.91,0,0,1,0-1.81h1.45a.91.91,0,1,1,0,1.81Z"/><path fill="#c08329" d="M10.69,53.43H7.91a.91.91,0,1,1,0-1.81h2.78a.91.91,0,0,1,0,1.81Z"/><path fill="#c08329" d="M2.36,53.43H.91a.91.91,0,1,1,0-1.81H2.36a.91.91,0,0,1,0,1.81Z"/><path fill="#c08329" d="M47.72,53.43h-30a.91.91,0,0,1,0-1.81h30a.91.91,0,1,1,0,1.81Z"/></g></g></svg>