<svg xmlns="http://www.w3.org/2000/svg" viewBox="0 0 54.06 49.29"><title>Asset 109</title><g id="Layer_2" data-name="Layer 2"><g id="Layer_1-2" data-name="Layer 1"><path fill="#c08329" d="M50.86,30.43a.91.91,0,0,1-.91-.91V24.73a.91.91,0,0,1,1.81,0v4.79A.9.9,0,0,1,50.86,30.43Z"/><path fill="#c08329" d="M50.86,44.73a.9.9,0,0,1-.91-.9V42.38a.91.91,0,1,1,1.81,0v1.45A.9.9,0,0,1,50.86,44.73Z"/><path fill="#c08329" d="M50.86,38.72a.9.9,0,0,1-.91-.9V35.53a.91.91,0,0,1,1.81,0v2.29A.9.9,0,0,1,50.86,38.72Z"/><path fill="#c08329" d="M50.86,31.88A.91.91,0,0,1,50,31V29.52a.91.91,0,1,1,1.81,0V31A.9.9,0,0,1,50.86,31.88Z"/><path fill="#c08329" d="M48.86,49.29H5.2a2.9,2.9,0,0,1-2.9-2.9V24.73a.91.91,0,0,1,1.81,0V46.39A1.08,1.08,0,0,0,5.2,47.47H48.86A1.08,1.08,0,0,0,50,46.39V43.83a.91.91,0,1,1,1.81,0v2.56A2.9,2.9,0,0,1,48.86,49.29Z"/><path fill="#c08329" d="M21.74,40.76H12.45a.91.91,0,0,1-.91-.91V34.28a.9.9,0,0,1,.91-.9h9.29a.9.9,0,0,1,.91.9v5.57A.91.91,0,0,1,21.74,40.76Zm-8.39-1.82h7.49V35.19H13.35Z"/><path fill="#c08329" d="M27,31.46c-2.28,0-4.61-.12-6.91-.35a.91.91,0,0,1-.81-.9V23.45H14.89v5.78a.91.91,0,0,1-1.1.89c-7.63-1.66-12.53-4.57-13.56-8a.91.91,0,0,1-.23-.6V10.9A2.9,2.9,0,0,1,2.9,8H51.16a2.9,2.9,0,0,1,2.9,2.89V21.51a.91.91,0,0,1-.23.6c-1,3.45-5.93,6.35-13.56,8a.91.91,0,0,1-1.1-.89V23.45H34.75v6.76a.91.91,0,0,1-.81.9C31.64,31.34,29.32,31.46,27,31.46Zm-5.91-2.08a64.82,64.82,0,0,0,11.82,0V22.55a.91.91,0,0,1,.91-.91h6.23a.91.91,0,0,1,.91.91v5.54c6.38-1.55,10.63-4.1,11.17-6.76a1.17,1.17,0,0,1,.09-.24V10.9a1.08,1.08,0,0,0-1.09-1.08H2.9A1.08,1.08,0,0,0,1.81,10.9V21.09a1.17,1.17,0,0,1,.09.24c.54,2.66,4.79,5.21,11.17,6.76V22.55a.91.91,0,0,1,.91-.91h6.23a.91.91,0,0,1,.91.91Z"/><path fill="#c08329" d="M41.61,40.76H32.32a.91.91,0,0,1-.91-.91V34.28a.9.9,0,0,1,.91-.9h9.29a.9.9,0,0,1,.91.9v5.57A.91.91,0,0,1,41.61,40.76Zm-8.39-1.82h7.49V35.19H33.22Z"/><path fill="#c08329" d="M20.21,35.19H14a.91.91,0,0,1-.91-.91V22.55a.91.91,0,0,1,.91-.91h6.23a.91.91,0,0,1,.91.91V34.28A.91.91,0,0,1,20.21,35.19Zm-5.32-1.81h4.42V23.45H14.89Z"/><path fill="#c08329" d="M40.08,35.19H33.85a.91.91,0,0,1-.91-.91V22.55a.91.91,0,0,1,.91-.91h6.23a.91.91,0,0,1,.91.91V34.28A.91.91,0,0,1,40.08,35.19Zm-5.33-1.81h4.42V23.45H34.75Z"/><path fill="#c08329" d="M29.79,17.4H24.27a.91.91,0,0,1,0-1.81h5.52a.91.91,0,0,1,0,1.81Z"/><path fill="#c08329" d="M40.08,9.82H14a.91.91,0,0,1-.91-.91V4.76A4.77,4.77,0,0,1,17.83,0h18.4A4.77,4.77,0,0,1,41,4.76V8.91A.91.91,0,0,1,40.08,9.82ZM14.89,8H39.17V4.76a3,3,0,0,0-2.94-2.95H17.83a3,3,0,0,0-2.94,2.95Z"/><path fill="#c08329" d="M34.67,9.82H19.39a.91.91,0,0,1-.91-.91V7.29a3.17,3.17,0,0,1,3.17-3.17H32.41a3.17,3.17,0,0,1,3.17,3.17V8.91A.91.91,0,0,1,34.67,9.82ZM20.3,8H33.76V7.29a1.35,1.35,0,0,0-1.35-1.36H21.65A1.35,1.35,0,0,0,20.3,7.29Z"/><path fill="#c08329" d="M53.16,49.29H.91a.91.91,0,0,1,0-1.82H53.16a.91.91,0,0,1,0,1.82Z"/></g></g></svg>