<svg xmlns="http://www.w3.org/2000/svg" viewBox="0 0 57.51 52.6">
    <title>Asset 117</title>
    <g id="Layer_2" data-name="Layer 2">
        <g id="Layer_1-2" data-name="Layer 1">
            <path fill="#ffffff" d="M42.07,9.62a5.92,5.92,0,0,1-3-.77c-1.67-.95-3.35-.47-5.3.08s-4.36,1.25-6.69-.08a.9.9,0,0,1-.34-1.24A.92.92,0,0,1,28,7.27c1.66,1,3.35.48,5.3-.08s4.36-1.25,6.69.08c1.67,1,3.35.48,5.3-.08a12.74,12.74,0,0,1,3.94-.69.91.91,0,1,1-.06,1.81,11.17,11.17,0,0,0-3.38.62A13.77,13.77,0,0,1,42.07,9.62Z" />
            <path fill="#ffffff" d="M42.08,14.8a5.82,5.82,0,0,1-1.73-.24.91.91,0,0,1,.51-1.74,8.12,8.12,0,0,0,4.43-.45,13,13,0,0,1,3.94-.69.91.91,0,0,1,.88.93.93.93,0,0,1-.94.88,11.12,11.12,0,0,0-3.38.62A13.74,13.74,0,0,1,42.08,14.8Z" />
            <path fill="#ffffff" d="M14.63,13a.9.9,0,0,1-.9-.91V5.24A5.25,5.25,0,0,1,19,0a.91.91,0,0,1,0,1.81,3.44,3.44,0,0,0-3.43,3.43v6.84A.91.91,0,0,1,14.63,13Z" />
            <path fill="#ffffff" d="M52,47.28H29.91a.91.91,0,1,1,0-1.81H52a.91.91,0,0,1,0,1.81Z" />
            <path fill="#ffffff" d="M53.6,22a.91.91,0,0,1-.91-.91V5.19a3.38,3.38,0,0,0-3.37-3.38H22.9a5.18,5.18,0,0,1,1.26,3.38V16a.91.91,0,0,1-1.81,0V5.19A3.39,3.39,0,0,0,19,1.81.91.91,0,1,1,19,0H49.32a5.2,5.2,0,0,1,5.19,5.19v15.9A.91.91,0,0,1,53.6,22Z" />
            <path fill="#ffffff" d="M48.61,36.24a8.91,8.91,0,1,1,8.9-8.91A8.92,8.92,0,0,1,48.61,36.24Zm0-16a7.1,7.1,0,1,0,7.09,7.09A7.1,7.1,0,0,0,48.61,20.24Z" />
            <path fill="#ffffff" d="M48.61,32.93a5.6,5.6,0,1,1,5.59-5.6A5.6,5.6,0,0,1,48.61,32.93Zm0-9.37a3.78,3.78,0,1,0,3.77,3.77A3.77,3.77,0,0,0,48.61,23.56Z" />
            <path fill="#ffffff" d="M42.78,43.85a.86.86,0,0,1-.41-.1.92.92,0,0,1-.49-.81V32.81a.9.9,0,0,1,.57-.85.91.91,0,0,1,1,.22,7.05,7.05,0,0,0,10.33,0,.91.91,0,0,1,1-.22.9.9,0,0,1,.57.85V42.94a.9.9,0,0,1-1.43.74l-5.29-3.81-5.3,3.81A.93.93,0,0,1,42.78,43.85Zm5.83-6a.9.9,0,0,1,.52.17l4.39,3.16V34.76a8.9,8.9,0,0,1-9.83,0v6.41L48.08,38A.9.9,0,0,1,48.61,37.84Z" />
            <path fill="#ffffff" d="M22.84,28.77a.91.91,0,0,1-.59-1.6l13-11a.92.92,0,0,1,1.28.11.9.9,0,0,1-.11,1.27l-13,11A.9.9,0,0,1,22.84,28.77Z" />
            <path fill="#ffffff" d="M12.52,37.5a.91.91,0,0,1-.63-1.57c2.59-2.47.6-5.65.51-5.79A.91.91,0,0,1,12.58,29l7.23-6.11a.9.9,0,0,1,1.28.1A.91.91,0,0,1,21,24.23l-6.67,5.64a6.23,6.23,0,0,1-1.17,7.37A.89.89,0,0,1,12.52,37.5Z" />
            <path fill="#ffffff" d="M14.1,52.6a.89.89,0,0,1-.69-.32.91.91,0,0,1,.1-1.28A25.53,25.53,0,0,1,20,47a21.07,21.07,0,0,0,5.43-3.34l5.45-4.61A.91.91,0,1,1,32,40.47l-5.45,4.6a23.1,23.1,0,0,1-5.9,3.63,23.26,23.26,0,0,0-6,3.69A.92.92,0,0,1,14.1,52.6Z" />
            <path fill="#ffffff" d="M.91,40.93a.91.91,0,0,1-.59-1.6l4.49-3.8.7-5.87a8.3,8.3,0,0,1,2.91-5.4l7.22-6.1a4.15,4.15,0,0,1,5.58.11,4.11,4.11,0,0,1,1.17,2.4L32,12.53A3.35,3.35,0,0,1,37.63,15a3.34,3.34,0,0,1-1.19,2.57.91.91,0,0,1-1.28-.1.91.91,0,0,1,.11-1.28A1.48,1.48,0,0,0,35.81,15a1.55,1.55,0,0,0-.56-1.19,1.64,1.64,0,0,0-2.06.11L21,24.23a.9.9,0,0,1-1.27-.11.89.89,0,0,1,.1-1.27,2.24,2.24,0,0,0,.13-3.3,2.33,2.33,0,0,0-3.13,0l-7.22,6.1a6.58,6.58,0,0,0-2.28,4.23L6.56,36.1a1,1,0,0,1-.31.59l-4.76,4A.88.88,0,0,1,.91,40.93Z" />
            <path fill="#ffffff" d="M24.67,32.86A3.35,3.35,0,0,1,22.5,27l3-2.56a3.35,3.35,0,0,1,4.32,5.11l-3,2.56A3.3,3.3,0,0,1,24.67,32.86Zm3-7.44a1.55,1.55,0,0,0-1,.36l-3,2.57a1.54,1.54,0,1,0,2,2.34l3-2.56a1.54,1.54,0,0,0-1-2.71Z" />
            <path fill="#ffffff" d="M27.82,36.59h-.28a3.34,3.34,0,0,1-1.88-5.89l3-2.56A3.34,3.34,0,0,1,34.18,31,3.33,3.33,0,0,1,33,33.24L30,35.8A3.31,3.31,0,0,1,27.82,36.59Zm3-7.44a1.54,1.54,0,0,0-1,.36l-3,2.56a1.55,1.55,0,0,0-.19,2.17,1.54,1.54,0,0,0,2.17.18l3-2.56a1.58,1.58,0,0,0,.54-1.05A1.54,1.54,0,0,0,31,29.15Z" />
            <path fill="#ffffff" d="M29.87,41.26h-.29a3.34,3.34,0,0,1-2.27-1.18,3.34,3.34,0,0,1,.39-4.71l3-2.57a3.35,3.35,0,1,1,4.32,5.11l-3,2.57A3.34,3.34,0,0,1,29.87,41.26Zm3-7.45a1.51,1.51,0,0,0-1,.37l-3,2.56a1.54,1.54,0,0,0-.54,1,1.52,1.52,0,0,0,.36,1.12,1.53,1.53,0,0,0,2.16.18l3-2.56a1.54,1.54,0,0,0,.19-2.16A1.55,1.55,0,0,0,32.89,33.81Z" />
        </g>
    </g>
</svg>
