<?xml version="1.0" encoding="utf-8"?>
<!-- Generator: Adobe Illustrator 16.0.0, SVG Export Plug-In . SVG Version: 6.00 Build 0)  -->
<!DOCTYPE svg PUBLIC "-//W3C//DTD SVG 1.1//EN" "http://www.w3.org/Graphics/SVG/1.1/DTD/svg11.dtd">
<svg version="1.1"
	 id="svg2" xmlns:dc="http://purl.org/dc/elements/1.1/" xmlns:cc="http://creativecommons.org/ns#" xmlns:rdf="http://www.w3.org/1999/02/22-rdf-syntax-ns#" xmlns:svg="http://www.w3.org/2000/svg" xmlns:sodipodi="http://sodipodi.sourceforge.net/DTD/sodipodi-0.dtd" xmlns:inkscape="http://www.inkscape.org/namespaces/inkscape" sodipodi:docname="noun_220364_cc.svg" inkscape:version="0.48.4 r9939"
	 xmlns="http://www.w3.org/2000/svg" xmlns:xlink="http://www.w3.org/1999/xlink" x="0px" y="0px" width="1336px" height="1240px"
	 viewBox="782.5 248.5 1336 1240" enable-background="new 782.5 248.5 1336 1240" xml:space="preserve">
<sodipodi:namedview  inkscape:cy="62.5" inkscape:cx="50" inkscape:zoom="1.888" showgrid="false" guidetolerance="10" gridtolerance="10" objecttolerance="10" bordercolor="#666666" pagecolor="#ffffff" borderopacity="1" id="namedview30" inkscape:current-layer="svg2" inkscape:window-maximized="0" inkscape:window-y="319" inkscape:window-x="759" inkscape:window-height="480" inkscape:window-width="640" inkscape:pageopacity="0" inkscape:pageshadow="2">
	</sodipodi:namedview>
<g id="g4" transform="translate(0,10)">
	<path id="path6" inkscape:connector-curvature="0" fill="none" d="M1053.453,1155.421l-26.554-3.384
		c14.587-8.41,6.868-26.813,3.269-32.977c-1.065-1.814-1.8-2.895-1.8-2.895c-0.216,0.159-0.403,0.303-0.604,0.447
		c-41.487,29.865-75.457,41.212-75.457,41.212c-18.748,7.416-50.141,12.601-50.141,12.601c5.155,56.016,38.017,99.216,77.761,99.216
		c26.093,0,49.19-18.591,63.46-47.175c7.834-15.739,13.018-34.474,14.545-54.806c0.547-3.716,0.835-7.503,0.878-11.348l-4.853-0.893
		H1053.453z"/>
	<path id="path8" inkscape:connector-curvature="0" fill="none" d="M1018.864,1283.394l10.439-21.744
		c-14.141,13.724-31.118,21.744-49.377,21.744c-18.677,0-36.015-8.396-50.357-22.709l14.962,33.365
		c-3.484-5.717-16.992-8.654-32.918-10.022c6.148,11.361,21.398,20.577,41.141,25.056l27.173,44.136l27.173-44.136
		c23.99-5.443,41.385-17.842,43.818-32.63C1035.51,1276.078,1022.363,1277.634,1018.864,1283.394z"/>
	<path id="path10" inkscape:connector-curvature="0" fill="none" d="M1450,480.737c40.853,0,74.592-44.381,79.891-101.923
		c-3.585,0.907-8.006,2.649-12.815,6.005c0,0,9.13-54.158-10.123-61.762c0,0-26.583,12.902-56.967,13.737
		c-30.369-0.835-56.952-13.737-56.952-13.737c-19.252,7.604-10.137,61.747-10.137,61.762c-4.796-3.355-9.217-5.098-12.803-6.005
		C1375.394,436.356,1409.147,480.737,1450,480.737L1450,480.737z"/>
	<path id="path12" inkscape:connector-curvature="0" fill="none" d="M1993.586,1155.406l-26.568-3.384
		c14.602-8.396,6.883-26.799,3.283-32.962c-1.051-1.828-1.8-2.895-1.8-2.895c-0.216,0.159-0.403,0.303-0.62,0.447
		c-41.486,29.865-75.455,41.212-75.455,41.212c-18.734,7.402-50.127,12.601-50.127,12.601c5.155,56.016,38.016,99.216,77.76,99.216
		c26.107,0,49.191-18.591,63.461-47.188c7.849-15.726,13.018-34.46,14.545-54.807c0.532-3.715,0.835-7.503,0.878-11.333
		l-4.853-0.907H1993.586L1993.586,1155.406z"/>
	<path id="path14" inkscape:connector-curvature="0" fill="none" d="M1958.997,1283.379l10.439-21.729
		c-14.141,13.724-31.118,21.729-49.378,21.729c-18.676,0-36.014-8.395-50.356-22.709l14.962,33.38
		c-3.484-5.717-16.992-8.654-32.918-10.037c6.162,11.376,21.412,20.592,41.141,25.056l27.187,44.15l27.159-44.15
		c23.99-5.442,41.385-17.841,43.833-32.615C1975.643,1276.078,1962.496,1277.634,1958.997,1283.379z"/>
	<path id="path16" inkscape:connector-curvature="0" d="M979.94,1009.664c10.009,0,18.115-8.107,18.115-18.115V873.771h903.888
		v117.777c0,9.993,8.107,18.115,18.131,18.115c9.993,0,18.115-8.107,18.115-18.115v-135.85c0-0.015,0-0.028,0-0.043
		c0-10.008-8.107-18.115-18.115-18.115h-451.959v-121.09c0-9.993-8.107-18.115-18.115-18.115s-18.115,8.107-18.115,18.115v121.09
		H979.94c-10.008,0-18.115,8.107-18.115,18.115v135.893C961.825,1001.543,969.933,1009.664,979.94,1009.664L979.94,1009.664z"/>
	<path id="path18" inkscape:connector-curvature="0" d="M1387.864,671.163h124.271c66.644,0,120.673,0.173,120.673-66.484
		c0-62.899-48.125-114.553-109.556-120.154c-0.476,22.004-33.091,39.759-73.238,39.759c-40.162,0-72.764-17.755-73.238-39.759
		c-61.445,5.616-109.556,57.27-109.556,120.154C1267.192,671.336,1321.221,671.163,1387.864,671.163z"/>
	<path id="path20" inkscape:connector-curvature="0" d="M1358.719,375.459c0.057,0.879,0.144,1.742,0.23,2.606
		c5.817,65.88,44.366,116.784,91.051,116.784s85.233-50.904,91.065-116.784c0.072-0.864,0.144-1.728,0.216-2.606
		c0.418-2.851,0.706-5.745,0.879-8.683c0.115-2.017,0.188-4.032,0.188-6.063c0-5.012-0.346-9.937-1.052-14.746
		c-6.782-46.685-45.072-82.454-91.296-82.454c-46.225,0-84.528,35.77-91.281,82.454c-0.691,4.796-1.052,9.734-1.052,14.746
		c0,2.03,0.072,4.046,0.188,6.063C1358.027,369.714,1358.301,372.608,1358.719,375.459L1358.719,375.459z M1393.033,323.058
		c0,0,26.583,12.902,56.952,13.737c30.384-0.835,56.967-13.737,56.967-13.737c19.253,7.604,10.123,61.747,10.123,61.762
		c4.81-3.355,9.23-5.098,12.815-6.005c-5.299,57.557-39.038,101.923-79.891,101.923s-74.606-44.381-79.891-101.923
		c3.585,0.907,8.006,2.649,12.801,6.005C1382.896,384.805,1373.781,330.661,1393.033,323.058z"/>
	<path id="path22" inkscape:connector-curvature="0" d="M1075.744,1278.296c20.146,2.246,37.828,5.717,37.828,5.717
		c-40.204-22.104-39.168-101.462-39.168-101.462c7.027-153.691-94.406-145.642-94.406-145.642l-0.071,0.244l-0.072-0.244
		c0,0-101.419-8.035-94.406,145.642c0,0,1.036,79.358-39.168,101.462c0,0,10.829-0.734,25.301-1.008
		C830.584,1301.321,802,1342.477,802,1390.299c0,64.872,52.589,53.396,117.461,53.396h120.96
		c64.872,0,117.461,11.477,117.461-53.396C1157.867,1337.739,1123.336,1293.286,1075.744,1278.296z M1007.1,1309.098l-27.173,44.136
		l-27.173-44.136c-19.742-4.493-35.007-13.694-41.141-25.057c15.926,1.383,29.434,4.307,32.918,10.023l-14.962-33.365
		c14.328,14.313,31.666,22.709,50.357,22.709c18.259,0,35.222-8.021,49.377-21.744l-10.439,21.744
		c3.499-5.76,16.646-7.33,32.068-6.927C1048.484,1291.241,1031.09,1303.654,1007.1,1309.098z M1057.932,1167.646
		c-1.527,20.333-6.696,39.067-14.545,54.807c-14.27,28.584-37.367,47.174-63.46,47.174c-39.744,0-72.605-43.2-77.761-99.216
		c0,0,31.393-5.184,50.142-12.6c0,0,33.97-11.348,75.456-41.213c0.201-0.145,0.402-0.303,0.604-0.446c0,0,0.734,1.08,1.8,2.894
		c3.6,6.164,11.318,24.567-3.269,32.977l26.554,3.384h0.489l4.853,0.893C1058.767,1160.144,1058.479,1163.932,1057.932,1167.646z"/>
	<path id="path24" inkscape:connector-curvature="0" d="M2015.877,1278.281c20.146,2.261,37.843,5.731,37.843,5.731
		c-40.219-22.104-39.183-101.462-39.183-101.462c7.014-153.691-94.406-145.642-94.406-145.642l-0.072,0.244l-0.071-0.244
		c0,0-101.434-8.035-94.406,145.642c0,0,1.022,79.358-39.183,101.462c0,0,10.828-0.734,25.301-1.008
		c-41.012,18.316-69.581,59.457-69.581,107.28c0,64.871,52.575,53.409,117.446,53.409h120.96
		c64.872,0,117.446,11.462,117.446-53.409C2098,1337.739,2063.469,1293.286,2015.877,1278.281z M1947.218,1309.083l-27.159,44.15
		l-27.187-44.15c-19.728-4.479-34.992-13.68-41.142-25.056c15.928,1.396,29.434,4.32,32.919,10.037l-14.962-33.38
		c14.343,14.313,31.681,22.709,50.357,22.709c18.259,0,35.223-8.007,49.377-21.729l-10.439,21.729
		c3.499-5.745,16.646-7.315,32.068-6.912C1988.604,1291.228,1971.208,1303.64,1947.218,1309.083z M1998.064,1167.632
		c-1.513,20.348-6.696,39.082-14.545,54.807c-14.27,28.599-37.367,47.188-63.461,47.188c-39.758,0-72.604-43.2-77.76-99.216
		c0,0,31.406-5.198,50.127-12.6c0,0,33.969-11.348,75.455-41.213c0.217-0.159,0.404-0.303,0.62-0.446c0,0,0.749,1.065,1.8,2.894
		c3.6,6.164,11.318,24.567-3.283,32.962l26.568,3.384h0.489l4.853,0.907C1998.885,1160.145,1998.597,1163.917,1998.064,1167.632
		L1998.064,1167.632z"/>
</g>
</svg>
