<?xml version="1.0" encoding="utf-8"?>
<!-- Generator: Adobe Illustrator 16.0.0, SVG Export Plug-In . SVG Version: 6.00 Build 0)  -->
<!DOCTYPE svg PUBLIC "-//W3C//DTD SVG 1.1//EN" "http://www.w3.org/Graphics/SVG/1.1/DTD/svg11.dtd">
<svg version="1.1" id="Capa_1" xmlns="http://www.w3.org/2000/svg" xmlns:xlink="http://www.w3.org/1999/xlink" x="0px" y="0px"
	 width="1780px" height="1800px" viewBox="562.5 0 1780 1800" enable-background="new 562.5 0 1780 1800" xml:space="preserve">
<g>
	<path d="M956.746,739.368c21.078,90.918,56.988,137.916,91.277,162.036c11.287,44.729,36.522,110.574,88.488,181.025l-0.072,0.036
		c0.127,0.072,0.631,0.702,0.685,0.81c2.97,4.051,5.022,7.885,8.244,11.916c0,0,37.332,43.272,89.496,83.286
		c25.29,18.918,54.684,37.188,88.002,51.336c0.252,0.072,0.485,0.216,0.792,0.324c10.871,4.608,22.77,7.812,34.416,11.431
		c16.992,4.392,33.119,7.884,48.006,10.26c7.506,1.134,14.742,2.735,22.572,3.24c2.844,0.378,5.886,0.737,8.676,1.062
		c4.104,0.18,8.046,0.324,12.15,0.324c74.394,0,146.861-27.595,216.773-80.929c0,0,72.18-66.798,103.248-105.119
		c46.134-65.7,69.822-126.847,80.441-168.967c34.236-24.12,70.201-71.118,91.261-162.036
		c12.312-52.704,21.474-119.25-16.345-166.913c-0.953-1.135-1.871-2.25-2.735-3.385c33.858-333.881-180.144-502.56-305.82-546.461
		l-1.836-0.594l-1.8-0.522C1565.326,7.272,1519.732,0,1477.252,0c-9.918,0-19.35,0.45-28.35,1.134
		C1439.686,0.378,1430.182,0,1420.696,0c-42.534,0-88.164,7.272-135.54,21.51l-1.746,0.558l-1.746,0.558
		c-125.748,43.902-339.696,212.598-305.838,546.426c-0.918,1.134-1.854,2.25-2.718,3.384
		C935.271,620.118,944.452,686.664,956.746,739.368z M1057.204,618.192c7.308,0,13.266,2.987,13.266,2.987
		c-77.688-406.548,239.616-517.194,239.616-517.194c43.65-13.14,80.298-17.856,110.628-17.856c10.116,0,19.476,0.486,28.206,1.512
		c8.748-1.026,18.18-1.512,28.35-1.512c30.349,0,66.979,4.716,110.629,17.856c0,0,317.25,110.628,239.562,517.176
		c0,0,6.013-2.988,13.32-2.988c15.605,0,36.954,13.878,16.56,101.61c-26.227,112.859-70.884,119.771-81.414,119.771
		c-1.512,0-2.25-0.107-2.25-0.107s-5.634,105.786-102.979,219.87c-0.071,0.882-0.144,1.871-0.215,2.735
		c-75.763,77.095-153.037,114.462-230.545,111.546c-96.371-4.014-172.512-69.75-210.348-109.584c0-0.594-0.126-1.476-0.126-2.069
		c-99.36-115.11-105.174-222.517-105.174-222.517s-0.882,0.108-2.304,0.108c-10.603,0-55.17-6.931-81.414-119.772
		C1020.232,632.07,1041.58,618.192,1057.204,618.192z"/>
	<path d="M2313.658,1553.273c-78.822-207.701-212.202-256.283-319.536-275.453c-89.622-16.074-201.348-49.429-240.858-71.19
		l-210.978,353.394l-31.806-139.283c36.989-21.348,62.153-60.822,62.153-106.668c0-5.059-0.882-9.918-1.476-14.868
		c-37.836,10.548-78.534,16.56-121.194,16.56c-43.397,0-84.762-6.264-123.084-17.046c-0.612,5.095-1.548,10.099-1.548,15.372
		c0,45.846,25.164,85.32,62.136,106.668l-31.248,136.8l-209.718-350.748c-39.689,21.582-151.074,54.99-240.605,71.011
		c-107.406,19.17-240.732,67.752-319.5,275.399c-13.393,35.334-8.622,73.62,13.031,105.048
		C680.355,1775.395,1106.686,1800,1449.964,1800c343.423,0,769.681-24.605,850.536-141.75
		C2322.208,1626.822,2326.979,1588.536,2313.658,1553.273z"/>
</g>
</svg>
