<?xml version="1.0" encoding="utf-8"?>
<!-- Generator: Adobe Illustrator 16.0.0, SVG Export Plug-In . SVG Version: 6.00 Build 0)  -->
<!DOCTYPE svg PUBLIC "-//W3C//DTD SVG 1.1//EN" "http://www.w3.org/Graphics/SVG/1.1/DTD/svg11.dtd">
<svg version="1.1"
	 id="svg2" xmlns:cc="http://creativecommons.org/ns#" xmlns:dc="http://purl.org/dc/elements/1.1/" xmlns:rdf="http://www.w3.org/1999/02/22-rdf-syntax-ns#" xmlns:svg="http://www.w3.org/2000/svg" xmlns:inkscape="http://www.inkscape.org/namespaces/inkscape" xmlns:sodipodi="http://sodipodi.sourceforge.net/DTD/sodipodi-0.dtd" inkscape:version="0.48.4 r9939" sodipodi:docname="noun_21720_cc.svg"
	 xmlns="http://www.w3.org/2000/svg" xmlns:xlink="http://www.w3.org/1999/xlink" x="0px" y="0px" width="1400px" height="1364px"
	 viewBox="754.5 156.5 1400 1364" enable-background="new 754.5 156.5 1400 1364" xml:space="preserve">
<sodipodi:namedview  inkscape:cy="62.5" inkscape:cx="50" borderopacity="1" bordercolor="#666666" inkscape:zoom="1.888" id="namedview76" objecttolerance="10" pagecolor="#ffffff" guidetolerance="10" showgrid="false" gridtolerance="10" inkscape:current-layer="svg2" inkscape:window-maximized="0" inkscape:window-y="34" inkscape:window-x="75" inkscape:pageopacity="0" inkscape:window-width="640" inkscape:pageshadow="2" inkscape:window-height="480">
	</sodipodi:namedview>
<g id="g4" transform="translate(0,10)">
	<g id="g6">
		<path id="path8" inkscape:connector-curvature="0" d="M1075.6,772.957c-32.645-7.776-75.931-22.651-120.902-51.351
			c-14.054,4.795-29.116,9.072-45.129,12.759c-102.097,23.558-120.846,50.76-120.846,148.435H1075.6V772.957z"/>
	</g>
	<g id="g10">
		<path id="path12" inkscape:connector-curvature="0" d="M989.401,707.293c31.896,18.273,61.92,29.059,86.198,35.524V401.552
			c0-39.456,39.24-65.952,75.889-65.952h169.675c1.642-2.851,3.586-5.472,5.674-7.991
			c-18.461-100.426-102.456-153.36-179.237-153.36c0.115,95.098-0.115,95.098,0,0c-126.302,0-272.505,142.992-113.457,405.562
			C1066.514,640.852,1042.148,680.754,989.401,707.293z"/>
	</g>
</g>
<g id="g14" transform="translate(0,10)">
	<path id="path16" inkscape:connector-curvature="0" d="M1378,695.6h-158.4V537.2H1378V695.6z M1248.4,666.8h100.8V566h-100.8V666.8
		z"/>
</g>
<g id="g18" transform="translate(0,10)">
	<rect id="rect20" x="1421.2" y="566" width="302.399" height="28.8"/>
</g>
<g id="g22" transform="translate(0,10)">
	<rect id="rect24" x="1421.2" y="623.6" width="259.2" height="28.801"/>
</g>
<g id="g26" transform="translate(0,10)">
	<path id="path28" inkscape:connector-curvature="0" d="M1378,940.4h-158.4V782H1378V940.4z M1248.4,911.6h100.8V810.8h-100.8V911.6
		z"/>
</g>
<g id="g30" transform="translate(0,10)">
	<path id="path32" inkscape:connector-curvature="0" d="M1378,1185.2h-158.4v-158.4H1378V1185.2z M1248.4,1156.4h100.8V1055.6
		h-100.8V1156.4z"/>
</g>
<g id="g34" transform="translate(0,10)">
	<rect id="rect36" x="1421.2" y="1113.2" width="158.399" height="28.8"/>
</g>
<g id="g38" transform="translate(0,10)">
	<g id="g40">
		<path id="path42" inkscape:connector-curvature="0" d="M1638.438,782H1421.2v28.8h186.379
			C1616.925,800.188,1627.264,790.568,1638.438,782z"/>
	</g>
</g>
<g id="g44" transform="translate(0,10)">
	<g id="g46">
		<path id="path48" inkscape:connector-curvature="0" d="M1584.006,843.186c0.706-1.253,1.613-2.361,2.348-3.586H1421.2V868.4
			h150.782C1575.438,859.904,1579.341,851.48,1584.006,843.186z"/>
	</g>
</g>
<g id="g50" transform="translate(0,10)">
	<g id="g52">
		<path id="path54" inkscape:connector-curvature="0" d="M1562.68,897.2H1421.2V926h136.036
			C1558.446,916.366,1560.232,906.762,1562.68,897.2z"/>
	</g>
</g>
<g id="g56" transform="translate(0,10)">
	<g id="g58">
		<path id="path60" inkscape:connector-curvature="0" d="M1570.11,1055.6H1421.2v28.801h158.544
			C1576.288,1075.011,1573.02,1065.436,1570.11,1055.6z"/>
	</g>
</g>
<g id="g62" transform="translate(0,10)">
	<path id="path64" inkscape:connector-curvature="0" d="M1521.74,1300.529c8.035-1.857,16.949-5.227,25.805-8.798
		c4.854-1.959,9.894-3.932,14.977-5.731h-383.789c-13.622,0-16.732-10.512-16.732-10.512V430.957
		c0-13.623,16.732-8.957,16.732-8.957h163.455c0,14.4,12.196,28.8,27.244,28.8h231.566c15.049,0,27.245-14.399,27.245-28.8h136.21
		c0,0,16.747-4.666,16.747,8.957V738.8h14.399v-0.936c14.213,2.218,28.801,6.278,43.2,11.938v-348.25
		c0-21.369-24.522-37.151-47.088-37.151h-163.469c0-14.4-12.196-28.801-27.245-28.801h-231.566c-15.048,0-27.244,14.4-27.244,28.801
		h-190.699c-22.565,0-47.088,15.782-47.088,37.151v903.326c0,21.385,24.522,38.722,47.088,38.722h268.444
		C1442.123,1324.188,1474.682,1311.387,1521.74,1300.529z M1573.768,376.467c7.518,0,13.623,6.092,13.623,13.623
		c0,7.517-6.092,13.622-13.623,13.622s-13.622-6.105-13.622-13.622C1560.146,382.559,1566.236,376.467,1573.768,376.467z
		 M1396.677,376.467c7.517,0,13.622,6.092,13.622,13.623c0,7.517-6.091,13.622-13.622,13.622s-13.622-6.105-13.622-13.622
		C1383.055,382.559,1389.16,376.467,1396.677,376.467z"/>
</g>
<path id="path66" inkscape:connector-curvature="0" d="M1608.602,1307.692c76.637,43.906,142.935,45.029,143.021,45.029
	c1.225,0,77.055-1.238,160.143-52.358c-43.329-26.41-61.042-64.498-31.507-120.153c159.048-262.57,12.845-405.562-113.458-405.562
	c0.115,95.097-0.115,95.097,0,0c-126.302,0-272.505,142.991-113.458,405.562C1685.714,1241.251,1661.349,1281.153,1608.602,1307.692
	z"/>
<g id="g68" transform="translate(0,10)">
	<path id="path70" inkscape:connector-curvature="0" d="M2004.832,1331.965c-22.738-5.241-43.661-15.192-62.18-22.724
		c-94.939,65.074-185.717,64.383-191.016,64.383c0,0-85.508-1.872-177.739-60.725c-14.055,4.795-29.116,15.825-45.13,19.512
		c-102.096,23.559-120.845,54.389-120.845,155.188H1766.8h358.877C2125.677,1386.8,2106.928,1355.523,2004.832,1331.965z"/>
</g>
</svg>
