<?xml version="1.0" encoding="utf-8"?>
<!-- Generator: Adobe Illustrator 16.0.0, SVG Export Plug-In . SVG Version: 6.00 Build 0)  -->
<!DOCTYPE svg PUBLIC "-//W3C//DTD SVG 1.1//EN" "http://www.w3.org/Graphics/SVG/1.1/DTD/svg11.dtd">
<svg version="1.1"
	 id="svg2" xmlns:cc="http://creativecommons.org/ns#" xmlns:dc="http://purl.org/dc/elements/1.1/" xmlns:rdf="http://www.w3.org/1999/02/22-rdf-syntax-ns#" xmlns:svg="http://www.w3.org/2000/svg" xmlns:inkscape="http://www.inkscape.org/namespaces/inkscape" xmlns:sodipodi="http://sodipodi.sourceforge.net/DTD/sodipodi-0.dtd" inkscape:version="0.48.4 r9939" sodipodi:docname="noun_240534_cc.svg"
	 xmlns="http://www.w3.org/2000/svg" xmlns:xlink="http://www.w3.org/1999/xlink" x="0px" y="0px" width="1068px" height="1460px"
	 viewBox="918.5 172.5 1068 1460" enable-background="new 918.5 172.5 1068 1460" xml:space="preserve">
<sodipodi:namedview  inkscape:cy="78.75" inkscape:cx="63" borderopacity="1" bordercolor="#666666" inkscape:zoom="1.4984127" id="namedview24" objecttolerance="10" pagecolor="#ffffff" guidetolerance="10" showgrid="false" gridtolerance="10" inkscape:current-layer="svg2" inkscape:window-maximized="0" inkscape:window-y="34" inkscape:window-x="75" inkscape:pageopacity="0" inkscape:window-width="640" inkscape:pageshadow="2" inkscape:window-height="480">
	</sodipodi:namedview>
<g id="g4" transform="translate(0,16)">
	<path id="path6" inkscape:connector-curvature="0" d="M1413.439,255.36c-102.422-3.931-415.816,104.8-464.766,144.526
		c-15.885,12.892-9.439,37.177-2.239,45.337c29.303,37.349,242.285-31.017,258.239-35.177
		c50.035-12.446,201.338-45.314,207.109,8.068c-111.783,5.555-160.96,36.892-161.749,54.183
		c-1.074,23.349,25.829,27.783,47.395,29.795c46.697,4.389,108.571-5.258,163.303,2.479c123.086,17.417,168.229,8.605,256.218-45.68
		c17.383-10.731,62.879-18.491,105.84-22.046V232.469c-91.967,15.428-199.498,23.726-244.572,23.52
		C1523.258,255.691,1468.263,257.463,1413.439,255.36z"/>
	<path id="path8" inkscape:connector-curvature="0" d="M1844.389,183.04v282.389h116.789V183.04H1844.389z M1905.828,255.646
		c-14.251,0-25.805-11.542-25.805-25.794c0-14.263,11.554-25.806,25.805-25.806c14.252,0,25.807,11.543,25.807,25.806
		C1931.635,244.103,1920.08,255.646,1905.828,255.646z"/>
	<g id="g10">
		
			<circle id="circle12" sodipodi:rx="9.4130001" sodipodi:cx="45.577999" sodipodi:ry="9.4130001" sodipodi:cy="42.993999" cx="1250.892" cy="658.217" r="107.577">
		</circle>
		
			<circle id="circle14" sodipodi:rx="9.1520004" sodipodi:cx="68.311996" sodipodi:ry="9.1520004" sodipodi:cy="45.25" cx="1510.709" cy="684" r="104.594">
		</circle>
		<path id="path16" inkscape:connector-curvature="0" d="M1732.423,1105.954c-24.286-165.646-61.052-236.548-151.325-291.886
			c-1.761-1.074-30.148-16.125-43.498-19.405l-26.068,26.229l-25.257-26.526c-0.092,0.012-0.183,0.035-0.263,0.046
			c-19.326,4.629-66.023,34.789-90.48,58.126c-19.555-23.405-43.211-42.777-72.24-60.583c-1.794-1.108-31.028-16.571-44.742-19.954
			l-26.801,26.982l-25.977-27.279c-0.092,0.022-0.172,0.034-0.263,0.057c-18.469,6.354-34.868,15.886-54.309,28.994
			c-82.926,55.771-118.263,129.691-141.978,291.406c-3.337,22.812,12.446,44.034,35.269,47.371c2.058,0.297,4.092,0.457,6.114,0.457
			c20.377,0,38.229-14.948,41.269-35.714c8.537-58.16,18.4-100.675,29.783-132.789v131.509c0,11.234,2.171,21.715,6.012,31.349
			c-0.298,2.171-0.503,4.366-0.503,6.605l38.309,399.932c0,27.257,22.091,49.337,49.359,49.337h66.605h9.27l0.125-283.485
			l-4.697-19.874v-103.954c-8.65,15.131-16.72,58.96-16.72,93.474c0,14.297-11.589,25.886-25.897,25.886
			c-4.137,0-8-1.052-11.463-2.776l-6.183-5.018c-4.571-4.674-7.394-11.04-7.394-18.092c0-26.125,2.73-48.812,7.383-68.491
			l2.65-10.092c27.921-97.988,105.121-115.577,115.224-117.988c0.058,0,0.126-0.012,0.183-0.046l16.892,17.749l16.88-17.749
			c0.068,0.034,0.148,0.046,0.194,0.046c12.343,2.948,125.257,28.549,125.257,196.571c0,14.297-11.588,25.886-25.896,25.886
			c-14.297,0-25.886-11.589-25.886-25.886c0-34.514-8.069-78.343-16.743-93.475v104.903l-4.641,18.938l0.023,283.485h7.863h73.92
			h0.011c26.491,0,47.966-21.475,47.966-47.988l28.869-208l53.017,0.057l-43.074-296.56v-61.12
			c12.994,32.411,24.058,76.994,33.475,141.097c2.972,20.194,20.309,34.743,40.126,34.743c1.965,0,3.942-0.16,5.942-0.457
			C1720.332,1148.754,1735.669,1128.126,1732.423,1105.954z M1380.8,1075.703c-39.897-0.389-72.114-32.834-72.114-72.8
			c0-39.978,32.217-72.4,72.114-72.789c39.897,0.389,72.114,32.812,72.114,72.789
			C1452.914,1042.88,1420.697,1075.314,1380.8,1075.703z"/>
		<path id="path18" inkscape:connector-curvature="0" d="M1379.291,1322.377l-1.417-0.045c-0.137-0.023-0.263-0.023-0.388-0.023
			c-2.617,0-5.109,1.006-7.018,2.846c-1.978,1.897-3.098,4.525-3.098,7.269l0.035,258.252h27.6l0.012-258.252
			c0-2.743-1.109-5.371-3.086-7.269c-1.897-1.84-4.412-2.846-7.029-2.846c-0.125,0-0.239,0-0.389,0.023"/>
	</g>
</g>
</svg>
