<?xml version="1.0" encoding="utf-8"?>
<!-- Generator: Adobe Illustrator 16.0.0, SVG Export Plug-In . SVG Version: 6.00 Build 0)  -->
<!DOCTYPE svg PUBLIC "-//W3C//DTD SVG 1.1//EN" "http://www.w3.org/Graphics/SVG/1.1/DTD/svg11.dtd">
<svg version="1.1"
	 id="svg2" xmlns:cc="http://creativecommons.org/ns#" xmlns:dc="http://purl.org/dc/elements/1.1/" xmlns:rdf="http://www.w3.org/1999/02/22-rdf-syntax-ns#" xmlns:svg="http://www.w3.org/2000/svg" xmlns:inkscape="http://www.inkscape.org/namespaces/inkscape" xmlns:sodipodi="http://sodipodi.sourceforge.net/DTD/sodipodi-0.dtd" inkscape:version="0.48.4 r9939" sodipodi:docname="noun_165566_cc.svg"
	 xmlns="http://www.w3.org/2000/svg" xmlns:xlink="http://www.w3.org/1999/xlink" x="0px" y="0px" width="784px" height="1356px"
	 viewBox="1058.5 216.5 784 1356" enable-background="new 1058.5 216.5 784 1356" xml:space="preserve">
<sodipodi:namedview  inkscape:cy="62.5" inkscape:cx="50.000005" borderopacity="1" bordercolor="#666666" inkscape:zoom="1.888" id="namedview10" objecttolerance="10" pagecolor="#ffffff" guidetolerance="10" showgrid="false" gridtolerance="10" inkscape:current-layer="svg2" inkscape:window-maximized="0" inkscape:window-y="146" inkscape:window-x="680" inkscape:pageopacity="0" inkscape:window-width="972" inkscape:pageshadow="2" inkscape:window-height="699">
	</sodipodi:namedview>
<path id="path4" inkscape:connector-curvature="0" d="M1450,244.8c-168.521,0-370.8,126.062-370.8,377.55
	c0,146.394,63.323,222.871,117,306.9c27.624,43.239,49.823,101.692,54.899,123.3c16.867,71.788,10.725,106.599,34.65,130.5
	c0.811,0.403,1.712,0.97,2.7,1.351c-0.216,8.399,0.215,16.928,0,25.199c-0.386,15.047,11.95,27.45,27,27.45h269.1
	c15.056,0,27.254-12.4,27-27.45c-0.136-8.602,0-17.666,0-25.199c0.988-0.381,1.89-0.947,2.7-1.351
	c23.925-23.901,17.78-58.712,34.65-130.5c5.078-21.604,27.726-80.061,55.35-123.3c53.68-84.028,116.55-160.507,116.55-306.9
	C1820.8,370.861,1618.521,244.8,1450,244.8z M1450,347.85c14.146,0,25.65,11.506,25.65,25.65v45
	c21.673,2.072,42.469,7.086,59.85,14.4c17.372,7.504,32.506,18.991,45.45,34.199c10.222,11.582,17.838,23.285,23.399,35.551
	c5.555,12.271,8.551,23.529,8.551,33.75c0,11.352-4.303,20.973-12.601,29.25c-8.294,8.297-18.337,12.6-30.149,12.6
	c-22.262,0-36.617-11.934-43.2-36c-7.239-27.415-24.362-46.173-51.3-55.8V628.2c26.771,7.414,48.244,14.112,64.35,20.25
	c16.703,6.353,31.824,15.417,45,27.45c14.07,12.494,24.786,27.627,32.4,44.999c7.605,17.373,11.25,36.482,11.25,57.15
	c0,25.897-5.85,49.857-18,72.45c-12.153,22.604-29.934,41.043-53.551,55.35c-24.327,13.549-52.772,21.719-81.449,24.75v45.45
	c0,14.145-11.505,25.65-25.65,25.65c-14.143,0-25.65-11.506-25.65-25.65V930.6c-23.266-2.443-45.128-8.067-64.35-17.1
	c-19.878-9.537-36.658-21.354-49.95-35.55c-13.29-14.188-22.896-29.21-29.25-44.551c-6.353-15.328-9.45-30.231-9.45-45
	c0.349-23.194,19.678-41.039,44.551-42.75c18.09,0.165,33.169,8.237,40.5,27.45c6.134,18.627,11.203,32.87,15.75,42.75
	c9.706,20.633,29.201,37.305,52.199,45.45V702c-28.215-8.036-51.805-17.245-71.1-27c-20.45-10.33-37.228-25.012-49.95-44.1
	c-12.726-19.076-18.899-43.375-18.899-73.351c0-39.057,12.482-71.323,37.35-96.3c24.682-24.668,62.726-38.115,102.6-42.3V373.5
	C1424.35,359.355,1435.857,347.85,1450,347.85L1450,347.85z M1424.35,485.1c-31.566,8.054-53.619,28.132-55.35,63.9
	c0,17.942,4.859,31.304,14.85,40.5c11.243,10.146,25.326,17.343,40.5,22.95V485.1z M1475.65,717.3V864
	c17.623-3.274,34.629-11.821,50.399-26.55c12.482-13.846,18.45-29.746,18.45-48.15c0-19.758-5.842-35.109-18-45.9
	C1512.729,731.456,1494.609,723.669,1475.65,717.3z M1315.45,1260.45c-15.052,0-27,11.948-27,27c0,15.051,11.948,27,27,27h269.1
	c15.052,0,27-11.949,27-27c0-15.052-11.948-27-27-27H1315.45z M1315.45,1337.85c-15.052,0-27,11.949-27,27
	c0,15.052,11.948,27.45,27,27.45h269.1c15.052,0,27-12.398,27-27.45c0-15.051-11.948-27-27-27H1315.45z M1315.45,1415.7
	c-15.052,0-27,11.948-27,27c0,15.051,11.948,27,27,27h269.1c15.052,0,27-11.949,27-27c0-15.052-11.948-27-27-27H1315.45z
	 M1377.55,1493.1c-5.321,0.087-10.347,0.608-15.75,0.9c19.268,28.317,51.366,46.8,88.2,46.8c36.6,0,68.887-18.334,88.2-46.35
	c-48.798,1.178-97.53-1.561-146.25-0.9C1387.309,1493.239,1382.315,1493.025,1377.55,1493.1L1377.55,1493.1z"/>
</svg>
