<?xml version="1.0" encoding="utf-8"?>
<!-- Generator: Adobe Illustrator 16.0.0, SVG Export Plug-In . SVG Version: 6.00 Build 0)  -->
<!DOCTYPE svg PUBLIC "-//W3C//DTD SVG 1.1//EN" "http://www.w3.org/Graphics/SVG/1.1/DTD/svg11.dtd">
<svg version="1.1" id="Capa_1" xmlns="http://www.w3.org/2000/svg" xmlns:xlink="http://www.w3.org/1999/xlink" x="0px" y="0px"
	 width="1660px" height="1440px" viewBox="610.5 180.5 1660 1440" enable-background="new 610.5 180.5 1660 1440"
	 xml:space="preserve">
<path d="M799.102,217.62L633.16,521.946v65.609c0,34.74,27.828,62.856,62.279,62.856c34.452,0,62.299-28.116,62.299-62.856v-65.609
	l140.58-304.326H799.102z M997.3,217.62L882.352,521.946v65.609c0,34.74,27.828,62.856,62.28,62.856
	c34.47,0,62.298-28.116,62.298-62.856v-65.609l89.299-304.326H997.3z M1195.48,217.62l-63.937,304.326v65.609
	c0,34.74,27.828,62.856,62.28,62.856c34.451,0,62.315-28.116,62.315-62.856v-65.609l38.286-304.326H1195.48z M1492.643,217.62
	h-98.965l-12.941,304.326v65.609c0,34.74,28.098,62.856,62.279,62.856c34.471,0,62.299-28.116,62.299-62.856v-65.609
	L1492.643,217.62z M1690.857,217.62h-99.27l38.61,304.326v65.609c0,34.74,27.827,62.856,62.28,62.856
	c34.199,0,62.334-28.116,62.334-62.856v-65.609L1690.857,217.62z M1889.056,217.62h-99.27l89.604,304.326v65.609
	c0,34.74,27.828,62.856,62.298,62.856c34.452,0,62.28-28.116,62.28-62.856v-65.609L1889.056,217.62z M2086.966,217.62h-98.981
	L2128.6,521.946v65.609c0,34.74,27.828,62.856,62.28,62.856c34.47,0,62.298-28.116,62.298-62.856v-65.609L2086.966,217.62z
	 M1759.762,1060.866h151.326v-152.46h-151.326V1060.866z M1911.088,731.7h-151.326v152.442h151.326V731.7z M1936.414,1060.866
	h151.344v-152.46h-151.344V1060.866z M1746.244,1152.63c0,11.61,9.63,21.24,21.222,21.24c11.574,0,21.24-9.63,21.24-21.24
	c0-11.844-9.666-21.474-21.24-21.474C1755.874,1131.156,1746.244,1140.786,1746.244,1152.63z M2087.775,731.7h-151.344v152.442
	h151.344V731.7z M1639.846,729.774v414.323H790.282V729.774H1639.846z M2128.582,647.928c-15.732,16.524-37.782,27-62.298,27
	c-24.552,0-46.603-10.494-62.334-27c-15.679,16.524-37.728,27-62.28,27c-24.516,0-46.602-10.494-62.298-27
	c-15.714,16.524-38.017,27-62.315,27c-24.498,0-46.584-10.494-62.263-27c-15.714,16.524-38.034,27-62.334,27
	c-24.498,0-46.548-10.494-62.28-27c-15.983,16.524-38.033,27-62.604,27c-24.264,0-46.296-10.494-62.28-27
	c-15.731,16.524-37.764,27-62.298,27c-24.246,0-46.584-10.494-62.279-27c-15.732,16.524-37.783,27-62.316,27
	c-24.534,0-46.584-10.494-62.28-27c-15.731,16.524-37.782,27-62.315,27c-24.534,0-46.584-10.494-62.28-27
	c-15.732,16.524-37.782,27-62.298,27c-24.534,0-46.584-10.494-62.299-27c-15.713,16.524-37.764,27-62.298,27
	s-46.584-10.494-62.279-27c-15.732,16.524-37.765,27-62.298,27c-24.534,0-46.584-10.494-62.28-27
	c-10.765,11.286-24.534,19.566-39.979,23.688v798.588h994.554V693.108h420.373v777.096h33.371V671.076
	C2151.46,666.648,2138.788,658.656,2128.582,647.928z M1676.225,1180.764H754.156V693.108h922.068V1180.764z M2253.16,1593.145
	h-1620v-85.752h1620V1593.145z"/>
</svg>
