<?xml version="1.0" encoding="utf-8"?>
<!-- Generator: Adobe Illustrator 16.0.0, SVG Export Plug-In . SVG Version: 6.00 Build 0)  -->
<!DOCTYPE svg PUBLIC "-//W3C//DTD SVG 1.1//EN" "http://www.w3.org/Graphics/SVG/1.1/DTD/svg11.dtd">
<svg version="1.1"
	 id="svg2" xmlns:cc="http://creativecommons.org/ns#" xmlns:dc="http://purl.org/dc/elements/1.1/" xmlns:rdf="http://www.w3.org/1999/02/22-rdf-syntax-ns#" xmlns:svg="http://www.w3.org/2000/svg" xmlns:inkscape="http://www.inkscape.org/namespaces/inkscape" xmlns:sodipodi="http://sodipodi.sourceforge.net/DTD/sodipodi-0.dtd" inkscape:version="0.48.4 r9939" sodipodi:docname="noun_149365_cc.svg"
	 xmlns="http://www.w3.org/2000/svg" xmlns:xlink="http://www.w3.org/1999/xlink" x="0px" y="0px" width="1488px" height="1256px"
	 viewBox="702.5 288.5 1488 1256" enable-background="new 702.5 288.5 1488 1256" xml:space="preserve">
<sodipodi:namedview  inkscape:cy="62.5" inkscape:cx="50" borderopacity="1" bordercolor="#666666" inkscape:zoom="1.888" id="namedview40" objecttolerance="10" pagecolor="#ffffff" guidetolerance="10" showgrid="false" gridtolerance="10" inkscape:current-layer="svg2" inkscape:window-maximized="0" inkscape:window-y="159" inkscape:window-x="843" inkscape:pageopacity="0" inkscape:window-width="640" inkscape:pageshadow="2" inkscape:window-height="480">
	</sodipodi:namedview>
<g id="g4" transform="translate(0,14)">
	<polygon id="polygon6" points="1364.393,1270.25 1278.266,1040.627 1192.153,1270.25 	"/>
	<polygon id="polygon8" points="1707.817,1270.25 1621.705,1040.627 1535.551,1270.25 	"/>
	<path id="path10" inkscape:connector-curvature="0" d="M730.864,891.572v126.994h134.841v481.09h1174.551v-481.075h128.865V891.572
		H730.864L730.864,891.572z M1736.229,1284.146c-0.259,1.411-0.792,2.736-1.512,4.061c-0.115,0.102-0.115,0.317-0.201,0.505
		c-0.087,0.086-0.174,0.115-0.26,0.187c-0.82,1.08-1.771,2.088-2.952,2.938c0,0-42.912,50.703-109.599,50.703
		c-65.39,0-109.598-50.703-109.598-50.703c-1.152-0.878-2.103-1.857-2.952-2.938c-0.058-0.071-0.173-0.101-0.23-0.187
		c-0.058-0.188-0.058-0.403-0.202-0.505c-0.763-1.324-1.267-2.678-1.512-4.061c-0.058-0.403-0.173-0.72-0.259-1.08
		c-0.145-1.469-0.058-2.98,0.36-4.392c0.057-0.26,0.259-0.331,0.259-0.461c0.058-0.101,0-0.273,0.058-0.303l97.085-259.056h-46.498
		h-88.56l-0.288,357.235h82.569v39.196h-206.121v-39.196h84.441l0.014-357.235h-88.617H1295.2l97.128,259.056
		c0.028,0.058,0,0.216,0.028,0.303c0.029,0.13,0.173,0.245,0.245,0.461c0.389,1.411,0.504,2.923,0.316,4.392
		c-0.028,0.36-0.101,0.677-0.158,1.08c-0.303,1.411-0.792,2.736-1.512,4.061c-0.145,0.102-0.145,0.317-0.245,0.505
		c-0.028,0.086-0.201,0.115-0.201,0.187c-0.864,1.08-1.786,2.088-2.938,2.938c0,0-44.237,50.703-109.642,50.703
		c-66.615,0-109.599-50.703-109.599-50.703c-1.21-0.878-2.146-1.857-3.01-2.938c0-0.071-0.058-0.101-0.13-0.187
		c-0.144-0.188-0.144-0.403-0.216-0.505c-0.806-1.324-1.296-2.678-1.54-4.061c-0.087-0.403-0.159-0.72-0.188-1.08
		c-0.173-1.469-0.072-2.98,0.374-4.392c0.058-0.26,0.13-0.331,0.216-0.461c0.029-0.101,0-0.273,0.029-0.303l103.061-274.953
		c0,0,0.072-0.043,0.145-0.072c1.641-4.406,5.875-7.546,10.857-7.546h61.963h90.086V952.24h0.188h19.44h0.13h19.41h0.23v43.113
		h90.115h61.935c4.982,0,9.202,3.168,10.858,7.546c0.057,0.028,0.144,0.071,0.144,0.071l103.046,274.954
		c0.087,0.058,0,0.216,0.087,0.303c0.058,0.129,0.144,0.244,0.259,0.46c0.36,1.412,0.446,2.924,0.303,4.393
		C1736.373,1283.439,1736.286,1283.742,1736.229,1284.146L1736.229,1284.146z"/>
</g>
<circle id="circle12" sodipodi:rx="5.4510002" sodipodi:cx="21.854" sodipodi:ry="5.4510002" sodipodi:cy="27.048" cx="1044.697" cy="591.091" r="78.495">
</circle>
<circle id="circle14" sodipodi:rx="5.4510002" sodipodi:cx="36.240002" sodipodi:ry="5.4510002" sodipodi:cy="27.048" cx="1251.855" cy="591.091" r="78.495">
</circle>
<circle id="circle16" sodipodi:rx="5.4499998" sodipodi:cx="28.834999" sodipodi:ry="5.4499998" sodipodi:cy="14.335" cx="1145.224" cy="408.024" r="78.48">
</circle>
<circle id="circle18" sodipodi:rx="5.4499998" sodipodi:cx="43.551998" sodipodi:ry="5.4499998" sodipodi:cy="14.335" cx="1357.148" cy="408.024" r="78.48">
</circle>
<circle id="circle20" sodipodi:rx="5.4499998" sodipodi:cx="57.512001" sodipodi:ry="5.4499998" sodipodi:cy="14.335" cx="1558.173" cy="408.024" r="78.48">
</circle>
<circle id="circle22" sodipodi:rx="5.4499998" sodipodi:cx="71.402" sodipodi:ry="5.4499998" sodipodi:cy="14.335" cx="1758.188" cy="408.024" r="78.48">
</circle>
<circle id="circle24" sodipodi:rx="5.4510002" sodipodi:cx="64.678001" sodipodi:ry="5.4510002" sodipodi:cy="27.048" cx="1661.363" cy="591.091" r="78.495">
</circle>
<path id="path26" inkscape:connector-curvature="0" d="M1457.676,512.611c43.314,0,78.465,35.107,78.465,78.494
	c0,43.315-35.121,78.48-78.465,78.48c-43.416,0-78.495-35.137-78.495-78.48C1379.181,547.732,1414.26,512.611,1457.676,512.611z"/>
<path id="path28" inkscape:connector-curvature="0" d="M1867.715,512.611c43.344,0,78.494,35.107,78.494,78.494
	c0,43.315-35.15,78.48-78.494,78.48c-43.43,0-78.494-35.137-78.494-78.48C1789.221,547.732,1824.313,512.611,1867.715,512.611
	L1867.715,512.611z"/>
<path id="path30" inkscape:connector-curvature="0" d="M1223.747,856.238V800.64c0-52.113-30.657-103.19-91.642-103.19
	l-175.968-0.086c-55.569,0-90.433,45.303-90.433,101.837v57.038H1223.747L1223.747,856.238z"/>
<path id="path32" inkscape:connector-curvature="0" d="M1636.667,856.238V800.64c0-52.113-30.657-103.19-91.655-103.19
	l-175.969-0.086c-55.541,0-90.359,45.303-90.359,101.837v57.038H1636.667L1636.667,856.238z"/>
<path id="path34" inkscape:connector-curvature="0" d="M2046.707,856.238V800.64c0-52.113-30.686-103.19-91.656-103.19
	l-175.953-0.086c-55.541,0-90.36,45.303-90.36,101.837v57.038H2046.707L2046.707,856.238z"/>
</svg>
