<?xml version="1.0" encoding="utf-8"?>
<!-- Generator: Adobe Illustrator 16.0.0, SVG Export Plug-In . SVG Version: 6.00 Build 0)  -->
<!DOCTYPE svg PUBLIC "-//W3C//DTD SVG 1.1//EN" "http://www.w3.org/Graphics/SVG/1.1/DTD/svg11.dtd">
<svg version="1.1"
	 id="svg2" xmlns:cc="http://creativecommons.org/ns#" xmlns:dc="http://purl.org/dc/elements/1.1/" xmlns:rdf="http://www.w3.org/1999/02/22-rdf-syntax-ns#" xmlns:svg="http://www.w3.org/2000/svg" xmlns:inkscape="http://www.inkscape.org/namespaces/inkscape" xmlns:sodipodi="http://sodipodi.sourceforge.net/DTD/sodipodi-0.dtd" inkscape:version="0.48.4 r9939" sodipodi:docname="noun_208358_cc.svg"
	 xmlns="http://www.w3.org/2000/svg" xmlns:xlink="http://www.w3.org/1999/xlink" x="0px" y="0px" width="968.75px" height="1080px"
	 viewBox="962.5 344.5 968.75 1080" enable-background="new 962.5 344.5 968.75 1080" xml:space="preserve">
<sodipodi:namedview  inkscape:cy="62.5" inkscape:cx="50" borderopacity="1" bordercolor="#666666" inkscape:zoom="1.888" id="namedview18" objecttolerance="10" pagecolor="#ffffff" guidetolerance="10" showgrid="false" gridtolerance="10" inkscape:current-layer="svg2" inkscape:window-maximized="0" inkscape:window-y="34" inkscape:window-x="75" inkscape:pageopacity="0" inkscape:window-width="640" inkscape:pageshadow="2" inkscape:window-height="480">
	</sodipodi:namedview>
<g id="g4" transform="translate(0,10)">
	<g id="g6">
		<path id="path8" inkscape:connector-curvature="0" d="M1883.08,364.4H1016.2c-14.4,0-25.92,11.52-25.92,25.92v979.199
			c0,14.4,11.52,25.921,25.92,25.921h866.88c14.4,0,25.92-11.521,25.92-25.921V390.32C1909,375.92,1897.48,364.4,1883.08,364.4z
			 M1600.84,1343.6h-302.4V1228.4h302.4V1343.6z M1855.72,1343.6h-201.6v-142.56c0-14.4-11.521-25.92-25.92-25.92h-357.12
			c-14.4,0-25.92,11.52-25.92,25.92v142.56h-203.04V417.68h813.6V1343.6z"/>
		<path id="path10" inkscape:connector-curvature="0" d="M1163.08,764.72h573.12c14.399,0,25.92-11.52,25.92-25.92V553.04
			c0-14.4-11.521-25.92-25.92-25.92h-573.12c-14.4,0-25.92,11.52-25.92,25.92V738.8C1135.72,753.2,1147.24,764.72,1163.08,764.72z
			 M1374.76,711.439V580.4h146.881V712.88H1374.76V711.439z M1708.84,711.439h-133.92V580.4h133.92V711.439L1708.84,711.439z
			 M1189,580.4h133.92V712.88H1189V580.4z"/>
		<path id="path12" inkscape:connector-curvature="0" d="M1163.08,1077.2h185.76l0,0l0,0h198.721l0,0l0,0h185.76
			c14.399,0,25.92-11.521,25.92-25.92V865.52c0-14.399-11.521-25.92-25.92-25.92h-570.24c-14.4,0-25.92,11.521-25.92,25.92v184.32
			C1135.72,1064.24,1147.24,1077.2,1163.08,1077.2z M1374.76,1023.92v-132.48h146.881v132.48H1374.76z M1708.84,1023.92h-133.92
			v-132.48h133.92V1023.92z M1189,891.439h133.92v132.48H1189V891.439z"/>
	</g>
</g>
</svg>
