<svg xmlns="http://www.w3.org/2000/svg" viewBox="0 0 55.74 48.38">
    <title>Asset 122</title>
    <g id="Layer_2" data-name="Layer 2">
        <g id="Layer_1-2" data-name="Layer 1">
            <path fill="#c08329" d="M28.1,45.15a3.16,3.16,0,0,1-2.59-5l.93-1.33a.92.92,0,0,1,1.27-.23l3.7,2.59a.9.9,0,0,1,.22,1.26L30.7,43.8A3.16,3.16,0,0,1,28.1,45.15Zm-.69-4.53-.41.59a1.35,1.35,0,0,0,2.22,1.55l.41-.59Z" />
            <path fill="#c08329" d="M37.19,38.46H37a12.91,12.91,0,1,1,5.21-.11.91.91,0,0,1-.92-.33,1.91,1.91,0,0,0-.45-.45,2.11,2.11,0,0,0-2.93.52A.91.91,0,0,1,37.19,38.46ZM39.41,14.8a11,11,0,0,0-6.34,20.08,10.85,10.85,0,0,0,3.77,1.68,3.93,3.93,0,0,1,5.06-.48,3.75,3.75,0,0,1,.44.37A11,11,0,0,0,39.41,14.8Z" />
            <path fill="#c08329" d="M39.65,43.22a3.86,3.86,0,0,1-2.24-.71,3.91,3.91,0,1,1,2.24.71Zm0-6a2.11,2.11,0,1,0,1.72,3.32,2.06,2.06,0,0,0,.35-1.58,2.11,2.11,0,0,0-2.07-1.74Z" />
            <path fill="#c08329" d="M32.54,44a1,1,0,0,1-.52-.16L25,39a.94.94,0,0,1-.38-.59.93.93,0,0,1,.15-.67l.71-1a1.89,1.89,0,0,0,.08-2.1A16.34,16.34,0,0,1,48,11.94c.25.15.5.32.74.49A.91.91,0,0,1,49,13.69l-.77,1.09a6.41,6.41,0,0,1,5.65,3.44A16.32,16.32,0,0,1,42.29,41.9a.89.89,0,0,1-.92-.4.91.91,0,0,1,0-1,2.08,2.08,0,0,0,.28-1.81,2.13,2.13,0,0,0-1.27-1.37A2.11,2.11,0,0,0,38,40.57.91.91,0,0,1,37.15,42c-.39-.06-.78-.12-1.16-.21a2,2,0,0,0-2,.79l-.71,1a.9.9,0,0,1-.58.38ZM26.8,38l5.52,3.85.19-.27A3.71,3.71,0,0,1,35.79,40a4,4,0,0,1,1.29-3.65,3.93,3.93,0,0,1,6.47,3.43,14.53,14.53,0,0,0,8.7-20.69,4.62,4.62,0,0,0-5.71-2.17.92.92,0,0,1-1-.29.93.93,0,0,1,0-1.08L47,13.42a14.74,14.74,0,0,0-19.39,4,14.47,14.47,0,0,0-.45,16.23A3.72,3.72,0,0,1,27,37.71Z" />
            <path fill="#c08329" d="M6.39,36.51a3.13,3.13,0,0,1-1.6-.44,3.1,3.1,0,0,1-1.46-1.93,3.15,3.15,0,0,1,.33-2.4l.83-1.4A.89.89,0,0,1,5,29.92a.93.93,0,0,1,.69.09L9.62,32.3A.91.91,0,0,1,10,33.54l-.83,1.4a3.15,3.15,0,0,1-1.93,1.47A3.65,3.65,0,0,1,6.39,36.51ZM5.59,32l-.36.63a1.31,1.31,0,0,0-.15,1,1.35,1.35,0,0,0,1.65,1A1.34,1.34,0,0,0,7.56,34l.37-.63Z" />
            <path fill="#c08329" d="M15.09,29.12H15A12.84,12.84,0,1,1,27.89,10.7a.9.9,0,1,1-1.62.79A11,11,0,1,0,10.78,25.86a10.79,10.79,0,0,0,3.89,1.38,3.94,3.94,0,0,1,5-.88,3.8,3.8,0,0,1,.92.76.91.91,0,0,1-.07,1.28.9.9,0,0,1-1.28-.06,1.75,1.75,0,0,0-.48-.41,2.12,2.12,0,0,0-2.89.74A.9.9,0,0,1,15.09,29.12Z" />
            <path fill="#c08329" d="M17.68,33.67a3.83,3.83,0,0,1-2-.54,3.91,3.91,0,1,1,2,.54Zm0-6a2.49,2.49,0,0,0-.53.07,2.12,2.12,0,0,0-.54,3.87,2.14,2.14,0,0,0,1.6.22,2.06,2.06,0,0,0,1.29-1,2.1,2.1,0,0,0-.75-2.88A2.06,2.06,0,0,0,17.69,27.63Z" />
            <path fill="#c08329" d="M10.9,35a1,1,0,0,1-.46-.12L3.07,30.56A1,1,0,0,1,2.65,30a.92.92,0,0,1,.1-.69l.63-1.07a1.89,1.89,0,0,0-.1-2.1A16.34,16.34,0,0,1,23.85,1.82c.27.13.52.28.78.42A.91.91,0,0,1,25,3.48l-.67,1.15a6.44,6.44,0,0,1,5.9,3l.49.83a.91.91,0,0,1-.36,1.23.89.89,0,0,1-1.23-.35c-.13-.25-.28-.5-.43-.74a4.6,4.6,0,0,0-5.86-1.71.92.92,0,0,1-1.06-.21.89.89,0,0,1-.11-1.07l1.3-2.22a14.73,14.73,0,0,0-19,5.48,14.47,14.47,0,0,0,.82,16.21,3.72,3.72,0,0,1,.21,4.11l-.17.28,5.81,3.41.17-.29a3.75,3.75,0,0,1,3.15-1.85A3.92,3.92,0,0,1,18.81,26a4,4,0,0,1,2.53,2.34,3.88,3.88,0,0,1-.26,3.4.91.91,0,0,1-1.57-.91,2.11,2.11,0,1,0-3.38.34.9.9,0,0,1,.14,1,.91.91,0,0,1-.87.51c-.38,0-.78-.06-1.16-.11a1.94,1.94,0,0,0-1.93.94l-.63,1.07A.91.91,0,0,1,10.9,35Z" />
            <path fill="#c08329" d="M23.09,48.38H8.76A4.43,4.43,0,0,1,4.34,44V35.29a.91.91,0,0,1,1.82,0V44a2.61,2.61,0,0,0,2.6,2.6H23.09A2.62,2.62,0,0,0,25.7,44v-.36a.91.91,0,0,1,.9-.89.92.92,0,0,1,.91.93v.35A4.44,4.44,0,0,1,23.09,48.38Z" />
        </g>
    </g>
</svg>
