<svg xmlns="http://www.w3.org/2000/svg" viewBox="0 0 40.16 42.99"><title>Asset 120</title><g id="Layer_2" data-name="Layer 2"><g id="Layer_1-2" data-name="Layer 1"><path fill="#c08329" d="M39.25,43a.9.9,0,0,1-.9-.9v-22a18.27,18.27,0,0,0-36.54,0v22a.91.91,0,0,1-1.81,0v-22a20.08,20.08,0,0,1,40.16,0v22A.9.9,0,0,1,39.25,43Z"/><path fill="#c08329" d="M18.63,5.84A.9.9,0,0,1,18.55,4c.5,0,1-.08,1.53-.08a.91.91,0,0,1,0,1.82c-.46,0-.91,0-1.36.06Z"/><path fill="#c08329" d="M4.87,29.4A.9.9,0,0,1,4,28.5V25.92a.91.91,0,0,1,1.82,0V28.5A.9.9,0,0,1,4.87,29.4Zm0-7.71A.91.91,0,0,1,4,20.78v-.7a16.15,16.15,0,0,1,.12-2,.91.91,0,0,1,1.8.21,14.72,14.72,0,0,0-.1,1.76v.7A.91.91,0,0,1,4.87,21.69Zm1.58-7.47a.85.85,0,0,1-.4-.1.9.9,0,0,1-.41-1.21,16.86,16.86,0,0,1,1.42-2.33.91.91,0,0,1,1.46,1.07,15,15,0,0,0-1.26,2.07A.9.9,0,0,1,6.45,14.22Zm5-5.76a.91.91,0,0,1-.52-1.66,16.83,16.83,0,0,1,2.37-1.35.91.91,0,0,1,.76,1.65A13.24,13.24,0,0,0,12,8.3,1,1,0,0,1,11.46,8.46Z"/><path fill="#c08329" d="M4.87,36A.9.9,0,0,1,4,35.1V33.65a.91.91,0,0,1,1.82,0V35.1A.9.9,0,0,1,4.87,36Z"/><path fill="#c08329" d="M35.29,43a.9.9,0,0,1-.91-.9v-22a14.31,14.31,0,0,0-14.3-14.3.91.91,0,0,1,0-1.82A16.13,16.13,0,0,1,36.19,20.08v22A.9.9,0,0,1,35.29,43Z"/><path fill="#c08329" d="M8.83,43a.9.9,0,0,1-.9-.9v-22A12.16,12.16,0,0,1,20.08,7.93h.5a.91.91,0,0,1,.87.94.9.9,0,0,1-.95.87h-.42A10.35,10.35,0,0,0,9.74,20.08v22A.9.9,0,0,1,8.83,43Z"/><path fill="#c08329" d="M31.32,32.08a.9.9,0,0,1-.9-.9v-3a.91.91,0,0,1,1.81,0v3A.9.9,0,0,1,31.32,32.08Zm0-8.95a.9.9,0,0,1-.9-.9V20.08c0-.26,0-.51,0-.77a.91.91,0,0,1,1.81-.13q0,.45,0,.9v2.15A.9.9,0,0,1,31.32,23.13Zm-2-8.54a.88.88,0,0,1-.74-.39,10.38,10.38,0,0,0-1.84-2,.91.91,0,0,1,1.17-1.39,12.85,12.85,0,0,1,2.16,2.38.9.9,0,0,1-.75,1.42Z"/><path fill="#c08329" d="M22,9.9h-.15a9.83,9.83,0,0,0-1.33-.14.91.91,0,1,1,.08-1.81,13.34,13.34,0,0,1,1.55.16A.91.91,0,0,1,22,9.9Z"/><path fill="#c08329" d="M15.12,15.66a.92.92,0,0,1-.67-.29.9.9,0,0,1,.05-1.28,7.69,7.69,0,0,1,1.29-1,.9.9,0,1,1,.95,1.54,6.27,6.27,0,0,0-1,.77A.89.89,0,0,1,15.12,15.66Z"/><path fill="#c08329" d="M12.8,31.94a.91.91,0,0,1-.91-.91V28.21a.91.91,0,0,1,1.82,0V31A.91.91,0,0,1,12.8,31.94Zm0-8.46a.91.91,0,0,1-.91-.91V20.08c0-.12,0-.25,0-.37a.91.91,0,1,1,1.81.08v2.78A.91.91,0,0,1,12.8,23.48Z"/><path fill="#c08329" d="M27.36,43a.9.9,0,0,1-.91-.9v-22a6.38,6.38,0,0,0-9.71-5.43.91.91,0,0,1-1.25-.3.9.9,0,0,1,.3-1.24,8.12,8.12,0,0,1,4.29-1.22,8.21,8.21,0,0,1,8.19,8.19v22A.9.9,0,0,1,27.36,43Z"/><path fill="#c08329" d="M23.4,24.6a.9.9,0,0,1-.91-.9V22.25a.91.91,0,1,1,1.81,0V23.7A.9.9,0,0,1,23.4,24.6Z"/><path fill="#c08329" d="M23.4,33a.91.91,0,0,1-.91-.91v-2.8a.91.91,0,0,1,1.81,0v2.8A.9.9,0,0,1,23.4,33Z"/><path fill="#c08329" d="M16.76,43a.9.9,0,0,1-.9-.9v-22a4.22,4.22,0,0,1,8.44,0v2.17a.91.91,0,0,1-1.81,0V20.08a2.41,2.41,0,0,0-4.82,0v22A.9.9,0,0,1,16.76,43Z"/></g></g></svg>